<svg width="21" height="20" viewBox="0 0 21 20" fill="none" xmlns="http://www.w3.org/2000/svg">
<path d="M20.6728 0.122768C20.9306 0.301339 21.0361 0.539435 20.9892 0.837054L17.9892 17.9799C17.9502 18.1957 17.8252 18.3631 17.6142 18.4821C17.5049 18.5417 17.3838 18.5714 17.251 18.5714C17.165 18.5714 17.0713 18.5528 16.9697 18.5156L11.6612 16.4509L8.82535 19.7433C8.68473 19.9144 8.49333 20 8.25114 20C8.14958 20 8.06365 19.9851 7.99334 19.9554C7.8449 19.9033 7.72576 19.8158 7.63592 19.6931C7.54608 19.5703 7.50116 19.4345 7.50116 19.2857V15.3906L17.626 3.57143L5.09886 13.8951L0.470043 12.0871C0.180986 11.9829 0.0247391 11.7783 0.00130206 11.4732C-0.0143226 11.1756 0.110675 10.9561 0.376295 10.8147L19.8759 0.100446C19.9931 0.0334821 20.1181 0 20.2509 0C20.4072 0 20.5478 0.0409226 20.6728 0.122768Z" fill="#FEF6F3"/>
</svg>
