<svg width="128" height="128" viewBox="0 0 128 128" fill="none" xmlns="http://www.w3.org/2000/svg">
<path d="M110.752 75.7292L110.755 75.9108L110.403 93.5815C110.366 95.4112 108.343 96.4606 106.837 95.5006L106.693 95.4014L102.603 92.3619C102.01 93.1638 101.391 93.9495 100.746 94.7182C85.8203 112.506 60.3594 116.988 40.211 105.746C39.9007 105.572 39.6455 105.339 39.452 105.068C37.3734 103.86 35.3594 102.483 33.4286 100.936C33.1274 100.848 32.8388 100.697 32.5829 100.483C27.0143 95.8102 22.6398 90.0609 19.661 83.6079C19.123 82.4423 19.6317 81.0613 20.7972 80.5233C21.9627 79.9853 23.3437 80.494 23.8817 81.6595C26.4309 87.1818 30.1104 92.1338 34.7717 96.2348C35.0495 96.3223 35.3136 96.4655 35.5498 96.6637C54.1092 112.237 81.6944 109.908 97.164 91.4721C98.1855 90.2547 99.1345 88.9907 100.009 87.6842C100.499 86.9534 101.327 86.592 102.14 86.6611L102.327 86.6848C102.699 86.7182 103.067 86.8413 103.399 87.061C103.618 87.2056 103.805 87.3809 103.957 87.5774L105.846 88.981L106.033 79.5275L97.7976 83.3217L97.9922 83.4616C98.9882 84.1754 99.2519 85.5309 98.6234 86.5601L98.5276 86.7048C97.8138 87.7009 96.4583 87.9645 95.429 87.3361L95.2843 87.2402L91.8401 84.772C90.4377 83.767 90.5904 81.6591 92.0694 80.8482L92.2217 80.7715L107.458 73.7533C108.961 73.0612 110.663 74.115 110.752 75.7292ZM83.5358 49.0752C84.3834 49.9472 84.4093 51.3139 83.627 52.2161L83.4892 52.362L56.3242 78.7676C55.4698 79.5981 54.1364 79.6421 53.2313 78.8993L53.0846 78.7683L43.8819 69.8301C42.961 68.9357 42.9396 67.4642 43.8339 66.5433C44.6813 65.6709 46.0466 65.6058 46.9709 66.3618L47.1207 66.4954L54.7031 73.859L80.249 49.0286C81.1694 48.1338 82.641 48.1547 83.5358 49.0752ZM17.6953 58.5224C18.9773 58.5889 19.9626 59.6821 19.8961 60.964C19.697 64.7999 20.0033 68.6528 20.8061 72.4159C21.0739 73.6714 20.2733 74.9062 19.0178 75.1741C17.7624 75.4419 16.5275 74.6413 16.2597 73.3858C15.3721 69.2253 15.0335 64.9653 15.2536 60.7232C15.3201 59.4412 16.4133 58.4558 17.6953 58.5224ZM94.5869 26.5893C105.994 36.1611 112.239 50.1683 111.973 64.7225C111.95 66.006 110.89 67.0275 109.607 67.0045C108.323 66.9806 107.302 65.9211 107.325 64.6376C107.566 51.4739 101.92 38.8112 91.5987 30.1504C73.0393 14.5773 45.4541 16.9061 29.9845 35.342C28.963 36.5594 28.014 37.8234 27.1392 39.1299C26.4324 40.1856 25.0185 40.4704 23.9636 39.8002L23.8221 39.7029L21.3034 37.8325L21.1142 47.2862L29.3508 43.4928L29.1563 43.3525C28.1603 42.6388 27.8966 41.2833 28.5251 40.254L28.6209 40.1093C29.3347 39.1133 30.6902 38.8496 31.7195 39.4781L31.8642 39.5739L35.3084 42.0421C36.7108 43.0471 36.5581 45.155 35.0791 45.9659L34.9268 46.0426L19.69 53.0608C18.1874 53.7529 16.4859 52.6991 16.3969 51.085L16.3937 50.9034L16.7457 33.2326C16.7809 31.464 18.6733 30.4243 20.1591 31.2242L20.3113 31.3135L20.4553 31.4127L24.6851 34.5546L25.1065 33.9937C25.3196 33.7163 25.5359 33.4409 25.7554 33.1676L26.4234 32.3539C43.5474 11.9463 74.0656 9.36991 94.5869 26.5893Z" fill="#FEF6F3"/>
</svg>
