<svg width="140" height="92" viewBox="0 0 140 92" fill="none" xmlns="http://www.w3.org/2000/svg">
<path fill-rule="evenodd" clip-rule="evenodd" d="M11.3553 82.7909H11.3508C19.5492 80.5519 18.922 80.7374 20.2214 80.1675C22.6489 79.1091 23.7995 77.4808 23.8491 75.0428C23.8807 73.4009 23.9258 73.7401 23.249 70.2619C23.1091 69.5427 23.1994 69.2306 23.5468 69.2351C23.8536 69.2351 23.0369 66.4037 29.259 89.0509C29.4711 89.9238 29.4485 90.0821 29.0966 90.0912C28.677 90.1047 28.6725 90.0912 27.9099 87.807C26.7458 84.3242 24.8779 82.4607 22.3286 82.2436C20.5598 82.0898 20.6275 82.0807 16.7652 83.1799C14.3603 83.8086 14.9604 83.6503 12.5555 84.2835C10.9718 84.7041 11.3689 84.5504 9.76257 85.351C8.72932 85.8666 4.08194 87.1692 3.2427 87.1783C2.24103 87.1647 1.64996 86.4772 1.8936 85.5952C2.09665 84.9755 2.28164 84.8579 3.73902 84.4373C6.77561 83.5598 8.83761 83.0532 9.30686 83.0713C10.3627 83.1211 10.0694 83.1618 11.3553 82.7909Z" fill="#FEF6F3"/>
<path fill-rule="evenodd" clip-rule="evenodd" d="M29.3765 66.0102H29.3719L35.8106 89.7927H30.6308C27.2964 77.5938 28.1311 80.6424 24.8013 68.4436L29.3223 65.8157C29.3539 65.9242 29.3449 65.8971 29.3765 66.0102Z" fill="#FEF6F3"/>
<path fill-rule="evenodd" clip-rule="evenodd" d="M59.6293 72.4465L59.6384 72.4511C52.762 71.0489 49.36 70.7594 43.3274 71.0579C41.3872 71.1529 37.0918 71.8133 34.4207 72.4194C33.7574 72.5687 33.9243 72.5325 33.2611 72.6817C32.7693 71.1755 32.8911 71.551 32.3948 70.0448L36.3698 68.9502C39.5779 68.3441 40.2367 68.2717 44.8615 68.0546C46.1113 67.9958 46.8377 67.842 46.7926 67.643C46.6798 67.15 43.8282 66.9917 39.2034 67.2178C37.3129 67.3128 36.9248 67.3807 32.6384 68.3848C32.1737 68.4933 31.9661 68.4029 31.9571 68.0863C31.939 67.3309 32.0609 67.2269 33.4551 66.7926C39.984 64.7618 47.7582 64.5899 56.9898 66.277C61.0145 67.0143 60.1708 66.8334 62.8915 67.5254L67.4577 68.6878L73.197 70.4699L75.3898 71.37C77.4202 72.2023 76.0711 71.7364 84.838 74.6448C86.9902 75.3594 86.3495 75.174 89.332 75.961C90.5547 76.3228 90.2479 76.2324 91.4707 76.5852C93.262 77.1008 98.5861 78.2044 100.007 78.3537L103.545 78.8196C107.078 79.2809 111.436 79.4573 115.619 79.299C118.155 79.2041 123.041 78.2542 125.482 77.3858C129.43 75.9791 132.047 74.5905 134.678 72.5144C135.431 71.9218 136.189 71.2434 137.34 70.1307C137.814 69.6739 137.769 69.7055 137.904 69.7508C137.963 69.7734 137.94 69.8774 137.76 70.393C137.092 72.0892 134.506 76.0062 132.85 77.8426C130.152 80.8233 128.569 82.0898 124.981 84.1342C121.674 86.0204 119.572 86.8119 115.439 87.7211L111.788 88.5262C110.683 88.7207 111.269 88.6619 107.682 88.9152C103.292 89.2273 100.761 89.2137 94.593 88.8518L86.1149 88.0693C84.1657 87.7753 84.653 87.8477 82.7083 87.5582C81.1156 87.4271 81.7653 87.513 78.1376 86.9521L69.628 85.6359L66.7267 85.2605C64.4256 84.962 64.9264 85.0162 63.2164 84.867L58.6006 84.2971C54.7834 83.8267 47.0227 83.7905 44.7757 84.2337C44.0538 84.374 44.32 84.3287 42.9168 84.5368C41.6895 84.7177 41.1571 84.8806 38.0167 86.0566L37.0015 86.4365L36.2345 83.7317C37.8859 82.8949 37.3986 83.0894 39.632 82.3793C43.3139 81.2033 47.0994 80.864 54.1337 81.0811C56.9447 81.1671 62.323 81.9043 67.6201 82.9266C75.9042 84.5232 73.8332 84.1207 82.1127 85.7354C86.5481 86.346 88.601 86.5405 89.3004 86.4139C89.4764 86.3913 89.4764 86.3822 89.2643 86.2782C89.1831 86.242 89.2237 86.2691 88.9846 86.0927C88.759 85.9571 89.5892 86.1244 83.1731 84.9258C76.3554 83.3065 78.0609 83.7045 71.2388 82.1169C63.8661 80.4027 62.3772 80.1268 57.071 79.4981C52.9154 79.0096 51.5709 78.9372 48.0289 79.0141C45.3713 79.0729 42.5649 79.4709 39.5689 80.2082C37.931 80.7012 38.3416 80.5791 36.7037 81.0676C36.0495 81.2621 36.2119 81.2123 35.5622 81.4023C34.565 77.6526 34.8132 78.5889 33.8206 74.8393L38.0212 73.9708C40.8909 73.3738 47.4649 72.9441 50.3887 73.1612L52.7891 73.2109L56.0513 73.4914C58.2396 73.6813 57.5628 73.5864 60.7664 74.1563C64.9986 74.9116 63.9383 74.7217 68.1706 75.477C67.6291 74.8845 67.7735 74.993 67.1599 74.7126C66.1447 74.2829 61.0822 72.7541 59.7557 72.4737C59.6835 72.4556 59.7015 72.4601 59.6293 72.4465ZM83.9356 77.5893C83.6559 77.6029 83.534 77.7748 83.2723 78.512C83.1821 78.7608 82.7128 79.3081 82.4737 79.4483C81.2961 80.1041 81.445 80.0137 81.4314 80.068L81.445 80.0227C81.4359 80.0544 81.4495 80.0815 81.4946 80.1087C81.7202 80.2444 81.6886 80.2263 81.7202 80.2534C81.9323 80.4389 81.8465 80.3846 82.3113 80.6424L83.9807 82.61C84.071 82.4155 84.1296 82.3024 84.2244 82.1124C84.8109 80.9681 84.6756 81.1535 85.1809 80.8098C86.4398 79.9866 86.2864 80.1041 86.2773 80.0137C86.2683 79.9232 86.0472 79.7333 85.8126 79.6202C84.8741 79.2086 84.7117 79.0503 84.3056 78.1185C84.0574 77.5034 84.1071 77.5803 83.9356 77.5893ZM105.544 83.89C105.372 83.8267 105.462 83.7588 104.894 84.3514L104.339 84.9303C104.158 85.1565 104.168 85.2062 104.411 85.4776L104.732 85.8395C104.944 86.1018 104.889 86.0385 105.102 86.3008C105.327 86.536 105.471 86.5722 105.616 86.432C106.189 85.8711 106.094 85.9571 106.288 85.8214C106.518 85.6631 106.464 85.7038 106.694 85.55C106.906 85.351 106.888 85.1565 106.631 84.9213C105.444 83.7633 105.598 83.9081 105.544 83.89Z" fill="#FEF6F3"/>
<path fill-rule="evenodd" clip-rule="evenodd" d="M82.3879 54.5667L82.3699 54.5531L82.961 54.5441L82.97 58.7641L78.7783 58.7506L78.8009 54.5938L82.3879 54.5667Z" fill="#FEF6F3"/>
<path fill-rule="evenodd" clip-rule="evenodd" d="M79.8164 49.1571L79.8525 49.1525C81.6483 49.1209 81.2016 49.1299 82.9974 49.0938L82.9523 53.2731C80.5519 53.246 81.152 53.2505 78.7516 53.2279L78.7471 49.1752L79.8164 49.1571Z" fill="#FEF6F3"/>
<path fill-rule="evenodd" clip-rule="evenodd" d="M88.0823 54.5848L88.1049 54.5894C88.3711 54.5939 88.3034 54.5939 88.5696 54.5939C88.4704 57.0047 88.4929 56.4031 88.3937 58.8185L84.2832 58.6873L84.3689 54.5848H88.0823Z" fill="#FEF6F3"/>
<path fill-rule="evenodd" clip-rule="evenodd" d="M88.4478 49.1481C88.4613 51.491 88.4568 50.903 88.4703 53.246C86.0564 53.237 86.661 53.2415 84.2471 53.237L84.4546 49.1481C86.5708 49.1481 86.0429 49.1481 88.1545 49.1481H88.4478Z" fill="#FEF6F3"/>
<path fill-rule="evenodd" clip-rule="evenodd" d="M137.935 58.8139L137.94 58.8004C137.985 58.7099 138.039 58.7009 138.107 58.7732C138.314 58.9813 138.319 59.0944 138.206 60.4332C138.066 62.0253 137.051 65.3046 136.243 66.7475C134.655 69.597 133.288 71.058 130.991 72.3561L130.035 72.9758C128.126 74.2106 124.801 75.2283 121.48 75.5947C120.632 75.6896 120.794 75.667 120.339 75.7349C119.779 75.8208 119.147 75.7439 119.035 75.5811C118.971 75.4952 119.093 75.3911 119.427 75.2373L120.654 74.8981C122.139 74.491 126.019 72.8627 127.183 72.1571C129.909 70.5062 130.752 69.8865 132.074 68.5431C133.189 67.4124 134.619 65.6845 135.188 64.7799C136.483 62.7174 137.191 61.184 137.922 58.8592L137.935 58.8139Z" fill="#FEF6F3"/>
<path fill-rule="evenodd" clip-rule="evenodd" d="M118.299 23.3935H118.29C119.017 24.4654 119.251 24.8589 119.5 25.4379C119.63 25.6867 119.594 25.6234 119.725 25.8676C119.635 25.9626 119.946 26.3244 117.528 23.3573C111.969 16.5274 104.529 10.9911 96.8944 7.99228C91.7281 5.96593 87.1033 4.89395 81.9777 4.53663C68.798 3.61844 57.1706 7.1148 46.7613 15.1252C38.6216 21.3897 32.0521 31.0646 29.2817 40.8798C27.2513 48.0715 26.8137 53.7571 27.6664 61.8761C27.8379 63.5496 27.8559 63.4501 27.3641 63.5903C26.6106 63.8074 25.2525 63.5994 25.045 63.233C24.3185 61.9349 23.8493 53.9606 24.2328 49.5189C24.7833 43.2092 26.006 38.2654 28.429 32.6025C30.7301 27.22 35.0977 20.865 39.1947 16.9254L42.2809 13.9628C47.4923 9.63417 51.9141 7.08314 58.4023 4.6678C64.1868 2.5148 69.5425 1.57399 76.1842 1.53329C81.8378 1.50162 87.8658 2.55551 93.2487 4.51854C96.8222 5.81667 99.4211 7.02434 102.313 8.72503C108.761 12.5199 113.986 17.3144 118.299 23.3935Z" fill="#FEF6F3"/>
<path fill-rule="evenodd" clip-rule="evenodd" d="M113.593 52.6535L113.602 52.649L120.88 60.1845C122.92 62.2967 122.717 62.0887 123.312 62.6631C123.596 62.9571 123.651 63.2873 123.448 63.518C123.335 63.6446 124.305 63.6265 116.652 63.6537C109.068 63.6808 110.331 64.011 107.813 61.3378C107.042 60.6232 107.236 60.7996 106.464 60.0849L78.5754 31.3496C76.8022 32.8785 78.1468 31.5306 69.1724 40.8165C60.9876 49.2883 63.0405 47.176 54.8016 55.5935C53.2449 57.2851 53.6375 56.8645 52.0718 58.5426C50.9212 59.7729 47.4199 63.2376 47.1808 63.3823C46.5897 63.708 47.0544 63.6672 43.905 63.6672C32.5573 63.6537 33.6763 63.6853 33.5229 63.3732C33.3379 63.0069 30.563 65.9333 52.9652 42.8655L78.5168 16.5546C88.0462 26.3154 85.6638 23.873 95.1887 33.6338C95.4008 33.7288 95.685 33.7243 95.8249 33.6248C96.0009 33.4981 95.9693 34.1223 96.0189 29.2283L96.0325 27.8397C101.149 27.8126 99.8722 27.8216 104.984 27.7945L105.106 31.7839L105.02 35.918C105.02 39.1023 105.025 38.3062 105.002 41.4905C104.98 44.1319 104.402 43.2092 109.036 47.9721C111.64 50.6497 110.985 49.9803 113.593 52.6535Z" fill="#FEF6F3"/>
<path fill-rule="evenodd" clip-rule="evenodd" d="M119.152 47.5469H119.157C119.274 47.7233 119.22 47.5967 119.531 48.4289C119.815 49.1391 120.307 49.4738 121.602 49.8356C121.724 49.8763 121.778 49.9442 121.733 50.0165C121.701 50.0708 121.81 50.0346 121.002 50.2924C120.023 50.6045 119.689 50.9483 119.278 52.0429C119.17 52.3278 118.967 52.6083 118.904 52.563C118.809 52.2329 118.832 52.3143 118.737 51.9841C118.408 51.0026 117.857 50.5096 116.734 50.1748C116.558 50.1206 116.499 50.0527 116.513 49.9351C116.531 49.822 116.467 49.8537 116.941 49.6999C118.033 49.3109 118.584 48.6687 118.836 47.5153C118.863 47.4067 118.881 47.3705 118.913 47.3569C118.967 47.3298 119.03 47.3796 119.152 47.5469Z" fill="#FEF6F3"/>
<path fill-rule="evenodd" clip-rule="evenodd" d="M127.351 25.1349C127.743 27.1974 128.393 28.3282 129.462 28.8076L131.087 29.3369C131.466 29.459 131.876 29.6625 131.867 29.7258C131.863 29.762 132.07 29.7032 130.437 30.1329C128.592 30.6169 127.793 31.612 127.382 33.9323C127.328 34.2625 127.26 34.3485 127.103 34.2761C127.017 34.2354 127.044 34.3168 126.931 33.7107C126.742 32.7789 126.132 31.4039 125.767 31.0602C125.059 30.3998 124.801 30.2912 122.798 29.8208C122.699 29.7937 122.654 29.753 122.663 29.6987C122.694 29.4997 122.771 29.468 124.125 29.0836C125.695 28.6448 126.448 27.7492 126.918 25.7726C126.958 25.6053 126.981 25.4425 127.003 25.1349C127.017 25.0218 127.066 24.954 127.148 24.9404C127.251 24.9268 127.324 24.9901 127.351 25.1349Z" fill="#FEF6F3"/>
<path fill-rule="evenodd" clip-rule="evenodd" d="M131.912 40.4772V40.4817C131.989 40.3641 132.025 40.346 132.07 40.4003L132.21 41.0924C132.535 42.6347 133.392 43.4579 135.071 43.8243C135.251 43.8741 135.283 43.9238 135.215 44.0459C135.156 44.1545 135.314 44.0867 134.119 44.5344C133.045 44.9325 132.377 45.724 132.187 46.8186C132.084 47.5287 132.106 47.4383 132.025 47.4428C131.935 47.4428 131.781 47.2574 131.682 47.0222L131.357 46.0994C131.046 45.1993 130.468 44.7063 129.34 44.3671C128.925 44.2404 128.582 44.1545 128.158 44.064L130.347 43.1459C131.068 42.6981 131.127 42.5986 131.705 40.8798C131.763 40.7215 131.741 40.7667 131.912 40.4772Z" fill="#FEF6F3"/>
</svg>
