<svg width="32" height="32" viewBox="0 0 32 32" fill="none" xmlns="http://www.w3.org/2000/svg">
<g id="octicon:x-12">
<path id="Vector" d="M5.91989 5.91989C6.2949 5.54536 6.80323 5.33499 7.33323 5.33499C7.86323 5.33499 8.37156 5.54536 8.74656 5.91989L15.9999 13.1706L23.2532 5.91989C23.4388 5.73429 23.6592 5.58707 23.9017 5.48662C24.1442 5.38617 24.4041 5.33447 24.6666 5.33447C24.929 5.33447 25.189 5.38617 25.4315 5.48662C25.674 5.58707 25.8943 5.73429 26.0799 5.91989C26.2655 6.1055 26.4127 6.32584 26.5132 6.56834C26.6136 6.81084 26.6653 7.07075 26.6653 7.33323C26.6653 7.59571 26.6136 7.85562 26.5132 8.09812C26.4127 8.34062 26.2655 8.56096 26.0799 8.74656L18.8292 15.9999L26.0799 23.2532C26.4547 23.6281 26.6653 24.1365 26.6653 24.6666C26.6653 25.1967 26.4547 25.7051 26.0799 26.0799C25.7051 26.4547 25.1967 26.6653 24.6666 26.6653C24.1365 26.6653 23.6281 26.4547 23.2532 26.0799L15.9999 18.8292L8.74656 26.0799C8.37172 26.4547 7.86333 26.6653 7.33323 26.6653C6.80313 26.6653 6.29473 26.4547 5.91989 26.0799C5.54506 25.7051 5.33447 25.1967 5.33447 24.6666C5.33447 24.1365 5.54506 23.6281 5.91989 23.2532L13.1706 15.9999L5.91989 8.74656C5.54536 8.37156 5.33499 7.86323 5.33499 7.33323C5.33499 6.80323 5.54536 6.2949 5.91989 5.91989Z" fill="#ED6426"/>
</g>
</svg>
