<svg width="32" height="32" viewBox="0 0 32 32" fill="none" xmlns="http://www.w3.org/2000/svg">
<path d="M5.92038 5.91989C6.29538 5.54536 6.80371 5.33499 7.33372 5.33499C7.86372 5.33499 8.37205 5.54536 8.74705 5.91989L16.0004 13.1706L23.2537 5.91989C23.4393 5.73429 23.6597 5.58707 23.9022 5.48662C24.1447 5.38617 24.4046 5.33447 24.6671 5.33447C24.9295 5.33447 25.1894 5.38617 25.4319 5.48662C25.6744 5.58707 25.8948 5.73429 26.0804 5.91989C26.266 6.1055 26.4132 6.32584 26.5137 6.56834C26.6141 6.81084 26.6658 7.07075 26.6658 7.33323C26.6658 7.59571 26.6141 7.85562 26.5137 8.09812C26.4132 8.34062 26.266 8.56096 26.0804 8.74656L18.8297 15.9999L26.0804 23.2532C26.4552 23.6281 26.6658 24.1365 26.6658 24.6666C26.6658 25.1967 26.4552 25.7051 26.0804 26.0799C25.7055 26.4547 25.1972 26.6653 24.6671 26.6653C24.137 26.6653 23.6286 26.4547 23.2537 26.0799L16.0004 18.8292L8.74705 26.0799C8.37221 26.4547 7.86382 26.6653 7.33372 26.6653C6.80361 26.6653 6.29522 26.4547 5.92038 26.0799C5.54554 25.7051 5.33496 25.1967 5.33496 24.6666C5.33496 24.1365 5.54554 23.6281 5.92038 23.2532L13.1711 15.9999L5.92038 8.74656C5.54585 8.37156 5.33548 7.86323 5.33548 7.33323C5.33548 6.80323 5.54585 6.2949 5.92038 5.91989Z" fill="#FEF6F3"/>
</svg>
