<svg width="35" height="8" viewBox="0 0 35 8" fill="none" xmlns="http://www.w3.org/2000/svg">
<g id="Group 8">
<path id="Vector" fill-rule="evenodd" clip-rule="evenodd" d="M2.44114 6.12633H2.43999C4.54301 5.55635 4.38213 5.60356 4.71547 5.45847C5.33816 5.18902 5.6333 4.77449 5.64603 4.15384C5.65413 3.73585 5.66571 3.82221 5.4921 2.93671C5.45622 2.75363 5.47936 2.67418 5.56849 2.67533C5.64719 2.67533 5.4377 1.9545 7.03378 7.71999C7.08817 7.94223 7.08239 7.98253 6.99211 7.98483C6.88447 7.98829 6.88331 7.98484 6.68771 7.40333C6.38909 6.51669 5.90992 6.04228 5.25598 5.987C4.80228 5.94785 4.81964 5.94555 3.82889 6.22536C3.21198 6.38542 3.36592 6.34512 2.74902 6.50632C2.34276 6.61341 2.44462 6.57426 2.03258 6.77808C1.76753 6.90935 0.575388 7.24097 0.360109 7.24328C0.103162 7.23982 -0.0484594 7.0648 0.0140411 6.84026C0.0661249 6.6825 0.113579 6.65256 0.487425 6.54547C1.26637 6.32209 1.79531 6.19312 1.91568 6.19773C2.18651 6.21039 2.11128 6.22076 2.44114 6.12633Z" fill="#ED6426"/>
<path id="Vector_2" fill-rule="evenodd" clip-rule="evenodd" d="M7.06327 1.8542H7.06211L8.71375 7.90872H7.38503C6.5297 4.80316 6.74382 5.57926 5.88965 2.4737L7.04938 1.80469C7.05748 1.83232 7.05517 1.82542 7.06327 1.8542Z" fill="#ED6426"/>
<path id="Vector_3" fill-rule="evenodd" clip-rule="evenodd" d="M14.8254 3.49335L14.8277 3.4945C13.0638 3.13753 12.1911 3.06384 10.6436 3.13984C10.146 3.16402 9.04409 3.33214 8.3589 3.48644C8.18876 3.52444 8.23159 3.51522 8.06145 3.55322C7.93529 3.16978 7.96654 3.26535 7.83922 2.88191L8.85891 2.60325C9.68183 2.44895 9.85081 2.43052 11.0372 2.37525C11.3578 2.36028 11.5441 2.32113 11.5325 2.27047C11.5036 2.14495 10.7721 2.10465 9.58576 2.16223C9.10081 2.18641 9.00127 2.20368 7.90172 2.45931C7.78251 2.48695 7.72927 2.46392 7.72695 2.38331C7.72232 2.19101 7.75357 2.16453 8.11122 2.05399C9.786 1.53697 11.7802 1.49321 14.1483 1.92272C15.1807 2.11041 14.9643 2.06435 15.6622 2.24053L16.8335 2.53646L18.3057 2.99015L18.8682 3.21929C19.3891 3.43116 19.043 3.31256 21.2919 4.05297C21.844 4.2349 21.6796 4.18769 22.4447 4.38805C22.7583 4.48017 22.6796 4.45714 22.9933 4.54696C23.4528 4.67822 24.8185 4.95919 25.1831 4.99719L26.0905 5.11579C26.9968 5.23324 28.1149 5.27815 29.1878 5.23785C29.8382 5.21367 31.0917 4.97185 31.7179 4.75077C32.7306 4.39266 33.4019 4.03915 34.0767 3.51062C34.27 3.35977 34.4644 3.18705 34.7596 2.90378C34.8811 2.78748 34.8695 2.79554 34.9043 2.80706C34.9193 2.81282 34.9135 2.8393 34.8672 2.97057C34.6959 3.40238 34.0327 4.39957 33.608 4.86707C32.9158 5.6259 32.5096 5.94832 31.5894 6.46879C30.741 6.94896 30.2017 7.15047 29.1415 7.38192L28.2051 7.58688C27.9216 7.6364 28.072 7.62143 27.1519 7.68591C26.0257 7.76536 25.3764 7.76191 23.7942 7.66979L21.6194 7.47058C21.1194 7.39574 21.2444 7.41416 20.7456 7.34046C20.337 7.30707 20.5037 7.32895 19.5731 7.18617L17.3902 6.85108L16.646 6.75551C16.0557 6.67951 16.1842 6.69333 15.7455 6.65533L14.5615 6.51024C13.5823 6.39049 11.5916 6.38127 11.0152 6.49412C10.83 6.52982 10.8983 6.5183 10.5383 6.57127C10.2235 6.61733 10.0869 6.65878 9.28136 6.95817L9.02095 7.0549L8.82418 6.36631C9.2478 6.15328 9.1228 6.2028 9.69572 6.02201C10.6402 5.72262 11.6112 5.63626 13.4157 5.69153C14.1367 5.71341 15.5164 5.9011 16.8752 6.16134C19.0002 6.56782 18.4689 6.46533 20.5928 6.87641C21.7305 7.03187 22.2572 7.08138 22.4366 7.04914C22.4817 7.04338 22.4817 7.04108 22.4273 7.01459C22.4065 7.00538 22.4169 7.01229 22.3555 6.96738C22.2977 6.93284 22.5106 6.97544 20.8648 6.6703C19.1159 6.25807 19.5534 6.3594 17.8034 5.95523C15.9122 5.51881 15.5303 5.44857 14.1691 5.28851C13.1032 5.16415 12.7582 5.14573 11.8497 5.1653C11.168 5.18027 10.448 5.2816 9.67952 5.4693C9.25937 5.59481 9.3647 5.56372 8.94456 5.68808C8.77673 5.73759 8.8184 5.72493 8.65173 5.77329C8.39594 4.81871 8.4596 5.05707 8.20497 4.10248L9.28252 3.8814C10.0186 3.7294 11.705 3.62001 12.455 3.67528L13.0707 3.68795L13.9076 3.75934C14.4689 3.8077 14.2953 3.78352 15.1171 3.92861C16.2027 4.12091 15.9307 4.07254 17.0164 4.26484C16.8775 4.114 16.9145 4.14163 16.7571 4.07024C16.4967 3.96085 15.1981 3.57165 14.8578 3.50025C14.8393 3.49565 14.8439 3.4968 14.8254 3.49335ZM21.0604 4.80259C20.9886 4.80604 20.9574 4.8498 20.8903 5.03749C20.8671 5.10082 20.7467 5.24015 20.6854 5.27585C20.3833 5.44281 20.4215 5.41978 20.418 5.4336L20.4215 5.42209C20.4192 5.43015 20.4227 5.43706 20.4342 5.44396C20.4921 5.47851 20.484 5.4739 20.4921 5.48081C20.5465 5.52802 20.5245 5.5142 20.6437 5.57984L21.072 6.08074C21.0951 6.03122 21.1102 6.00243 21.1345 5.95407C21.2849 5.66275 21.2502 5.70996 21.3798 5.62245C21.7028 5.41287 21.6634 5.44281 21.6611 5.41978C21.6588 5.39675 21.6021 5.34839 21.5419 5.3196C21.3011 5.21482 21.2595 5.17452 21.1553 4.93731C21.0916 4.78071 21.1044 4.80028 21.0604 4.80259ZM26.6033 6.40661C26.5593 6.39049 26.5824 6.37322 26.4366 6.52406L26.2942 6.67145C26.2479 6.72902 26.2503 6.74169 26.3128 6.81078L26.3949 6.9029C26.4493 6.96968 26.4354 6.95356 26.4898 7.02035C26.5477 7.08023 26.5848 7.08944 26.6218 7.05374C26.7688 6.91096 26.7445 6.93284 26.7942 6.89829C26.8533 6.85799 26.8394 6.86835 26.8984 6.8292C26.9528 6.77854 26.9482 6.72902 26.8822 6.66915C26.5778 6.37437 26.6172 6.41121 26.6033 6.40661Z" fill="#ED6426"/>
<path id="Vector_4" fill-rule="evenodd" clip-rule="evenodd" d="M34.9121 0.0226456L34.9133 0.0191913C34.9248 -0.00383845 34.9387 -0.00614115 34.9561 0.0122826C35.0093 0.065251 35.0105 0.094038 34.9816 0.434878C34.9457 0.840202 34.6853 1.67503 34.4781 2.04235C34.0707 2.76779 33.72 3.13972 33.1308 3.4702L32.8855 3.62795C32.3959 3.94231 31.5429 4.20139 30.691 4.29466C30.4734 4.31884 30.5151 4.31309 30.3982 4.33036C30.2547 4.35224 30.0926 4.33266 30.0637 4.29121C30.0475 4.26933 30.0787 4.24284 30.1644 4.20369L30.4792 4.11733C30.86 4.0137 31.8554 3.59916 32.154 3.41953C32.8531 2.99924 33.0695 2.84149 33.4086 2.49949C33.6945 2.21162 34.0614 1.77175 34.2072 1.54146C34.5394 1.01638 34.7211 0.626025 34.9086 0.0341603L34.9121 0.0226456Z" fill="#ED6426"/>
</g>
</svg>
