<svg width="128" height="128" viewBox="0 0 128 128" fill="none" xmlns="http://www.w3.org/2000/svg">
<path d="M75.7606 17.6104C83.7124 21.1997 85.9369 30.9872 82.7181 40.9971L82.4022 41.964L81.2716 45.3317L80.7619 46.887L80.4299 47.9391L80.2215 48.631L79.9934 49.442L79.8992 49.806L79.7806 50.3083L79.7158 50.618L79.6381 51.0521L79.5983 51.3251L79.5551 51.7174L79.5294 52.0974L79.5191 52.4746L79.5195 52.7292C79.5489 55.197 80.1559 56.2045 81.479 56.2757L81.6348 56.2798H103.315L103.489 56.2863L103.665 56.3053L103.705 56.3074C110.009 56.6469 115.018 61.7658 115.186 68.0769L115.191 68.4044C115.191 70.4992 114.651 72.5121 113.658 74.2871L113.573 74.433L113.625 74.4796C115.941 76.6463 117.353 79.6617 117.454 82.9309L117.46 83.3092C117.46 86.9506 115.833 90.2954 113.163 92.5508L113.037 92.6526L113.208 92.9053C114.416 94.7416 115.115 96.8922 115.185 99.1558L115.191 99.5341C115.191 104.089 112.651 108.138 108.796 110.207L108.701 110.255L108.733 110.37C108.963 111.23 109.097 112.117 109.13 113.019L109.139 113.471C109.139 119.756 104.334 124.942 98.1531 125.529L97.8182 125.555L97.7558 125.568C97.6976 125.577 97.6388 125.584 97.5795 125.589L97.3996 125.596H56.2887C54.2568 125.596 51.9868 124.669 49.3984 123.032C48.1752 122.259 46.9021 121.336 45.5959 120.293C44.7398 119.61 43.8972 118.898 43.0804 118.176L43.0806 120.341C43.0806 123.164 40.8459 125.461 38.0489 125.59L37.8007 125.596H15.8194C12.9911 125.596 10.6753 123.38 10.5453 120.589L10.5396 120.341V114.042C10.5396 112.758 11.5802 111.718 12.8639 111.718C14.0893 111.718 15.0932 112.666 15.1819 113.869L15.1883 114.042V120.341C15.1883 120.638 15.4137 120.891 15.716 120.939L15.8194 120.947H37.8007C38.1185 120.947 38.3755 120.724 38.4238 120.438L38.4319 120.341V61.1197C38.4319 60.8222 38.2068 60.5692 37.9042 60.5216L37.8007 60.5135H15.8194C15.5017 60.5135 15.2446 60.7369 15.1964 61.0225L15.1883 61.1197V95.6547C15.1883 96.9384 14.1476 97.9791 12.8639 97.9791C11.6386 97.9791 10.6347 97.0309 10.5459 95.8282L10.5396 95.6547V61.1197C10.5396 58.296 12.7744 55.9994 15.5712 55.8705L15.8194 55.8648H37.8007C40.6294 55.8648 42.9449 58.0806 43.0749 60.872L43.0806 61.1197L43.0818 63.2777C48.1763 62.5922 52.1643 58.0911 55.883 49.9781L56.1393 49.4109L58.8421 42.7842L59.7928 40.5086L60.4123 39.0617L60.8543 38.0552L61.2669 37.1435L61.6412 36.3514L61.8649 35.902C61.9003 35.8329 61.9347 35.7667 61.9681 35.7037L62.1553 35.3643C62.1842 35.3144 62.212 35.2679 62.2386 35.2251L62.3148 35.1074C64.0782 32.5107 65.478 27.9513 66.4472 22.6263C67.2251 18.3536 71.798 15.8222 75.7606 17.6104ZM71.0208 23.4589C69.9806 29.1739 68.5028 34.0706 66.3971 37.3601L66.1122 37.7942L65.9987 37.9924L65.7894 38.4012L65.5383 38.9301L65.1481 39.7956L64.59 41.0842L63.4672 43.7686L60.5343 50.955L60.3487 51.3868L60.116 51.8998L59.6469 52.9037L59.1722 53.8776L58.6917 54.8214C54.545 62.7852 49.7083 67.3984 43.0816 67.9604L43.0819 111.824C43.1729 111.892 43.2599 111.969 43.3422 112.052L43.7258 112.433L44.2423 112.932C44.4256 113.107 44.6195 113.29 44.8234 113.48C45.9887 114.566 47.2319 115.651 48.4956 116.66C49.6775 117.603 50.8164 118.429 51.8828 119.103C53.677 120.238 55.1678 120.87 56.1171 120.94L56.2887 120.947L97.1 120.946L97.3051 120.928C101.316 120.762 104.49 117.477 104.49 113.471C104.49 112.383 104.254 111.329 103.803 110.356L103.645 110.035C102.963 108.726 103.657 107.121 105.078 106.722C108.286 105.821 110.542 102.899 110.542 99.5341C110.542 97.3545 109.597 95.3314 107.974 93.9142C106.711 92.812 106.994 90.7762 108.51 90.061C111.118 88.8306 112.811 86.2235 112.811 83.3092C112.811 80.6621 111.416 78.2593 109.171 76.9103C107.921 76.1591 107.664 74.4561 108.635 73.369C109.858 72.001 110.542 70.2574 110.542 68.4044C110.542 64.448 107.449 61.1994 103.519 60.9532L103.164 60.9372L103.07 60.9284L81.6348 60.9285C77.2378 60.9285 75.0256 57.7284 74.8779 53.0957L74.8696 52.6094L74.8709 52.2675L74.8847 51.7705L74.915 51.2824L74.9456 50.9564L74.9854 50.6261L75.0352 50.288L75.0956 49.9388C75.1066 49.8795 75.1181 49.8196 75.1301 49.759L75.2079 49.387L75.2983 48.9955L75.402 48.5812L75.5841 47.9098L75.8003 47.1684L76.2432 45.7463L76.9254 43.668L77.9881 40.5056L78.2925 39.5741C80.872 31.5525 79.217 24.2709 73.8482 21.8476C72.6876 21.3238 71.2662 22.1107 71.0208 23.4589ZM55.1735 25.8632C56.4572 25.8632 57.4979 26.9038 57.4979 28.1875C57.4979 29.4129 56.5497 30.4168 55.347 30.5055L55.1735 30.5119H48.6855C47.4017 30.5119 46.3611 29.4712 46.3611 28.1875C46.3611 26.9622 47.3093 25.9583 48.512 25.8695L48.6855 25.8632H55.1735ZM98.0467 25.8632C99.3304 25.8632 100.371 26.9038 100.371 28.1875C100.371 29.4129 99.4229 30.4168 98.2202 30.5055L98.0467 30.5119H91.5586C90.2749 30.5119 89.2343 29.4712 89.2343 28.1875C89.2343 26.9622 90.1825 25.9583 91.3852 25.8695L91.5586 25.8632H98.0467ZM92.4635 9.13634C93.3224 9.99733 93.366 11.3635 92.5955 12.2758L92.4595 12.4235L87.8693 17.0026C86.9604 17.9092 85.4887 17.9074 84.5821 16.9986C83.7232 16.1376 83.6796 14.7715 84.4501 13.8592L84.5861 13.7115L89.1763 9.13235C90.0852 8.22573 91.5569 8.22752 92.4635 9.13634ZM57.4078 8.99675L57.5559 9.13235L62.1434 13.7088C63.0522 14.6154 63.054 16.0871 62.1474 16.9959C61.2885 17.8569 59.9224 17.9038 59.0083 17.1355L58.8602 16.9999L54.2727 12.4235C53.3639 11.5169 53.3621 10.0452 54.2687 9.13634C55.1276 8.27535 56.4937 8.22843 57.4078 8.99675ZM73.3661 1.24219C74.5915 1.24219 75.5954 2.19039 75.6841 3.39308L75.6905 3.56655V10.0389C75.6905 11.3227 74.6498 12.3633 73.3661 12.3633C72.1407 12.3633 71.1368 11.4151 71.0481 10.2124L71.0417 10.0389V3.56655C71.0417 2.28284 72.0824 1.24219 73.3661 1.24219Z" fill="#FEF6F3"/>
</svg>
