<svg xmlns="http://www.w3.org/2000/svg" width="37" height="30" viewBox="0 0 37 30" fill="none">
  <path d="M16.133 0.439901C16.2731 0.579202 16.3842 0.744626 16.46 0.926711C16.5358 1.1088 16.5748 1.30397 16.5748 1.50108C16.5748 1.69819 16.5358 1.89337 16.46 2.07545C16.3842 2.25754 16.2731 2.42296 16.133 2.56226L5.1443 13.5003L34.6527 13.5003C35.0523 13.5003 35.4355 13.6583 35.718 13.9396C36.0006 14.2209 36.1593 14.6024 36.1593 15.0002C36.1593 15.398 36.0006 15.7795 35.718 16.0608C35.4355 16.342 35.0523 16.5001 34.6527 16.5001L5.1443 16.5001L16.133 27.4381C16.4157 27.7195 16.5745 28.1012 16.5745 28.4993C16.5745 28.8973 16.4157 29.279 16.133 29.5604C15.8503 29.8419 15.4669 30 15.0671 30C14.6673 30 14.2838 29.8419 14.0012 29.5604L0.441861 16.0614C0.301784 15.9221 0.19066 15.7566 0.114842 15.5745C0.039024 15.3925 -6.51267e-07 15.1973 -6.59939e-07 15.0002C-6.68611e-07 14.8031 0.039024 14.6079 0.114842 14.4258C0.19066 14.2437 0.301784 14.0783 0.441861 13.939L14.0011 0.439901C14.1411 0.300445 14.3072 0.189815 14.4901 0.114333C14.673 0.0388521 14.8691 3.16896e-06 15.0671 3.16036e-06C15.2651 3.15176e-06 15.4611 0.038852 15.644 0.114333C15.8269 0.189815 15.9931 0.300445 16.133 0.439901Z" fill="#120703"/>
</svg>