<svg width="109" height="100" viewBox="0 0 109 100" fill="none" xmlns="http://www.w3.org/2000/svg">
<g clip-path="url(#clip0_178_454)">
<path fill-rule="evenodd" clip-rule="evenodd" d="M13.4622 52.9942H13.4592C18.8467 51.534 18.4345 51.655 19.2885 51.2833C20.8837 50.593 21.6398 49.5311 21.6724 47.9411C21.6931 46.8703 21.7228 47.0915 21.278 44.8231C21.1861 44.3541 21.2454 44.1505 21.4737 44.1535C21.6753 44.1535 21.1387 42.3069 25.2275 57.0768C25.3668 57.6461 25.352 57.7493 25.1207 57.7552C24.845 57.7641 24.842 57.7553 24.3409 56.2656C23.5759 53.9942 22.3484 52.7788 20.6732 52.6373C19.5109 52.537 19.5553 52.5311 17.0173 53.2479C15.4369 53.6579 15.8312 53.5547 14.2509 53.9676C13.2101 54.242 13.4711 54.1417 12.4155 54.6638C11.7365 55.0001 8.68251 55.8496 8.13101 55.8555C7.47277 55.8467 7.08435 55.3983 7.24447 54.8231C7.37789 54.419 7.49946 54.3423 8.45717 54.0679C10.4526 53.4957 11.8077 53.1653 12.116 53.1771C12.8099 53.2095 12.6171 53.2361 13.4622 52.9942Z" fill="#FEF6F3"/>
<path fill-rule="evenodd" clip-rule="evenodd" d="M25.3044 42.0502H25.3014L29.5326 57.5605H26.1287C23.9375 49.6048 24.4861 51.593 22.2979 43.6372L25.2688 41.9233C25.2896 41.9941 25.2837 41.9764 25.3044 42.0502Z" fill="#FEF6F3"/>
<path fill-rule="evenodd" clip-rule="evenodd" d="M45.1851 46.2476L45.1911 46.2506C40.6723 45.3361 38.4367 45.1473 34.4724 45.342C33.1975 45.404 30.3747 45.8346 28.6194 46.2299C28.1836 46.3273 28.2933 46.3037 27.8574 46.401C27.5342 45.4187 27.6143 45.6636 27.2881 44.6812L29.9003 43.9674C32.0085 43.5721 32.4414 43.5249 35.4805 43.3833C36.3019 43.345 36.7792 43.2447 36.7496 43.1149C36.6755 42.7933 34.8015 42.6901 31.7624 42.8376C30.52 42.8995 30.265 42.9438 27.4482 43.5987C27.1428 43.6695 27.0064 43.6105 27.0005 43.404C26.9887 42.9113 27.0687 42.8435 27.9849 42.5603C32.2753 41.2358 37.3841 41.1237 43.4506 42.224C46.0954 42.7048 45.5409 42.5869 47.3289 43.0382L50.3295 43.7963L54.101 44.9585L55.542 45.5456C56.8763 46.0883 55.9897 45.7845 61.7508 47.6812C63.1652 48.1473 62.7441 48.0264 64.704 48.5397C65.5075 48.7756 65.3059 48.7166 66.1094 48.9467C67.2866 49.283 70.7853 50.0028 71.7193 50.1001L74.0439 50.404C76.3655 50.7048 79.2298 50.8199 81.9784 50.7166C83.6447 50.6547 86.8559 50.0352 88.4599 49.4689C91.0544 48.5515 92.7741 47.6458 94.5027 46.2919C94.9979 45.9054 95.496 45.463 96.2521 44.7373C96.5634 44.4394 96.5338 44.46 96.6227 44.4895C96.6613 44.5043 96.6464 44.5721 96.5278 44.9084C96.089 46.0146 94.39 48.5692 93.3019 49.7668C91.5288 51.7108 90.488 52.5367 88.1308 53.87C85.9575 55.1001 84.5757 55.6164 81.8598 56.2093L79.461 56.7343C78.7346 56.8612 79.1201 56.8228 76.7629 56.988C73.8779 57.1916 72.2145 57.1827 68.1613 56.9467L62.5899 56.4364C61.309 56.2447 61.6293 56.2919 60.3513 56.1031C59.3047 56.0175 59.7316 56.0736 57.3477 55.7078L51.7557 54.8494L49.8491 54.6046C48.337 54.4099 48.6661 54.4453 47.5423 54.3479L44.5091 53.9762C42.0007 53.6694 36.9008 53.6459 35.4242 53.9349C34.9498 54.0264 35.1247 53.9969 34.2026 54.1326C33.3961 54.2506 33.0462 54.3568 30.9826 55.1237L30.3154 55.3715L29.8114 53.6075C30.8966 53.0618 30.5764 53.1886 32.0441 52.7255C34.4635 51.9585 36.9512 51.7373 41.5737 51.8789C43.4209 51.9349 46.9553 52.4158 50.4362 53.0824C55.88 54.1237 54.5191 53.8612 59.9599 54.9143C62.8746 55.3125 64.2237 55.4394 64.6833 55.3568C64.7989 55.342 64.7989 55.3361 64.6595 55.2683C64.6062 55.2447 64.6329 55.2624 64.4757 55.1473C64.3275 55.0588 64.873 55.168 60.6567 54.3863C56.1765 53.3302 57.2973 53.5898 52.8142 52.5544C47.9693 51.4364 46.9908 51.2565 43.504 50.8464C40.7731 50.5279 39.8896 50.4807 37.562 50.5308C35.8156 50.5692 33.9713 50.8287 32.0025 51.3096C30.9262 51.6311 31.196 51.5515 30.1197 51.87C29.6898 51.9969 29.7965 51.9644 29.3696 52.0883C28.7143 49.6429 28.8774 50.2535 28.2251 47.8081L30.9855 47.2417C32.8713 46.8523 37.1914 46.5721 39.1127 46.7137L40.6901 46.7461L42.8338 46.929C44.2719 47.0529 43.8271 46.991 45.9323 47.3627C48.7135 47.8553 48.0167 47.7314 50.798 48.224C50.4422 47.8376 50.537 47.9084 50.1338 47.7255C49.4667 47.4453 46.1399 46.4482 45.2682 46.2653C45.2207 46.2535 45.2326 46.2565 45.1851 46.2476ZM61.1578 49.6016C60.974 49.6105 60.8939 49.7225 60.722 50.2034C60.6627 50.3656 60.3543 50.7225 60.1971 50.814C59.4233 51.2417 59.5211 51.1827 59.5122 51.2181L59.5211 51.1886C59.5152 51.2093 59.5241 51.227 59.5537 51.2447C59.702 51.3332 59.6812 51.3214 59.702 51.3391C59.8413 51.46 59.785 51.4246 60.0904 51.5928L61.1875 52.8759C61.2468 52.7491 61.2853 52.6753 61.3476 52.5515C61.733 51.8051 61.6441 51.9261 61.9762 51.7019C62.8034 51.165 62.7026 51.2417 62.6967 51.1827C62.6908 51.1237 62.5455 50.9998 62.3913 50.9261C61.7746 50.6576 61.6678 50.5544 61.401 49.9467C61.2379 49.5456 61.2705 49.5957 61.1578 49.6016ZM75.3574 53.7107C75.2447 53.6695 75.304 53.6252 74.9305 54.0116L74.5658 54.3892C74.4472 54.5367 74.4531 54.5692 74.6132 54.7461L74.8237 54.9821C74.9631 55.1532 74.9275 55.1119 75.0668 55.283C75.2151 55.4364 75.31 55.46 75.4049 55.3686C75.7814 55.0028 75.7192 55.0588 75.8466 54.9703C75.9979 54.8671 75.9623 54.8936 76.1135 54.7933C76.2529 54.6636 76.241 54.5367 76.072 54.3833C75.2922 53.6282 75.393 53.7225 75.3574 53.7107Z" fill="#FEF6F3"/>
<path fill-rule="evenodd" clip-rule="evenodd" d="M60.1406 34.587L60.1287 34.5782L60.5171 34.5723L60.5231 37.3245L57.7686 37.3156L57.7834 34.6047L60.1406 34.587Z" fill="#FEF6F3"/>
<path fill-rule="evenodd" clip-rule="evenodd" d="M58.4508 31.0589L58.4745 31.0559C59.6546 31.0353 59.361 31.0412 60.5411 31.0176L60.5115 33.7432C58.9341 33.7255 59.3284 33.7285 57.751 33.7137L57.748 31.0707L58.4508 31.0589Z" fill="#FEF6F3"/>
<path fill-rule="evenodd" clip-rule="evenodd" d="M63.8828 34.5986L63.8976 34.6016C64.0726 34.6045 64.0281 34.6045 64.203 34.6045C64.1378 36.1768 64.1526 35.7845 64.0874 37.3597L61.3862 37.2741L61.4426 34.5986H63.8828Z" fill="#FEF6F3"/>
<path fill-rule="evenodd" clip-rule="evenodd" d="M64.1228 31.0532C64.1317 32.5812 64.1287 32.1978 64.1376 33.7258C62.5513 33.7199 62.9486 33.7228 61.3623 33.7199L61.4987 31.0532C62.8893 31.0532 62.5424 31.0532 63.93 31.0532H64.1228Z" fill="#FEF6F3"/>
<path fill-rule="evenodd" clip-rule="evenodd" d="M96.6435 37.3568L96.6465 37.348C96.6761 37.289 96.7117 37.2831 96.7562 37.3303C96.8926 37.466 96.8955 37.5397 96.8214 38.4129C96.7295 39.4512 96.0624 41.5899 95.5316 42.5309C94.4879 44.3893 93.5895 45.3421 92.0803 46.1887L91.4517 46.5928C90.1975 47.3981 88.0123 48.0619 85.83 48.3008C85.2726 48.3627 85.3793 48.348 85.0798 48.3922C84.7122 48.4483 84.2971 48.3981 84.2229 48.2919C84.1814 48.2359 84.2615 48.168 84.4809 48.0678L85.2874 47.8465C86.2629 47.581 88.8128 46.5191 89.5778 46.0589C91.3687 44.9822 91.9232 44.5781 92.7919 43.702C93.5243 42.9645 94.4642 41.8377 94.8378 41.2477C95.6888 39.9026 96.1543 38.9026 96.6346 37.3863L96.6435 37.3568Z" fill="#FEF6F3"/>
<path fill-rule="evenodd" clip-rule="evenodd" d="M83.7398 14.2566H83.7339C84.2112 14.9557 84.3654 15.2124 84.5285 15.5899C84.6145 15.7522 84.5908 15.7109 84.6767 15.8702C84.6174 15.9321 84.822 16.1681 83.2328 14.233C79.5798 9.77872 74.6905 6.16811 69.6736 4.21235C66.2786 2.89082 63.2395 2.1917 59.8712 1.95867C51.2103 1.35985 43.5694 3.64008 36.729 8.86427C31.3801 12.9498 27.063 19.2596 25.2424 25.6607C23.9082 30.351 23.6206 34.059 24.181 39.3539C24.2936 40.4454 24.3055 40.3805 23.9823 40.4719C23.4871 40.6135 22.5947 40.4778 22.4583 40.2389C21.9809 39.3923 21.6725 34.1917 21.9246 31.2949C22.2863 27.1799 23.0898 23.9557 24.682 20.2625C26.1942 16.7522 29.0644 12.6076 31.7566 10.0383L33.7847 8.10616C37.2094 5.28315 40.1151 3.61943 44.3788 2.04421C48.18 0.640082 51.6995 0.0265124 56.0641 -3.62276e-05C59.7793 -0.0206852 63.7406 0.66663 67.2779 1.94687C69.6262 2.79347 71.334 3.58108 73.2346 4.69023C77.4717 7.16515 80.9052 10.292 83.7398 14.2566Z" fill="#FEF6F3"/>
<path fill-rule="evenodd" clip-rule="evenodd" d="M80.6468 33.3392L80.6527 33.3362L85.4353 38.2507C86.7755 39.6282 86.6421 39.4925 87.0335 39.8672C87.2203 40.0589 87.2559 40.2743 87.1224 40.4247C87.0483 40.5073 87.6858 40.4955 82.6571 40.5132C77.6728 40.5309 78.5031 40.7462 76.8486 39.0029C76.3415 38.5368 76.469 38.6518 75.962 38.1858L57.6351 19.4454C56.4698 20.4424 57.3534 19.5633 51.4559 25.6194C46.0773 31.1445 47.4264 29.7669 42.0123 35.2566C40.9893 36.3598 41.2473 36.0855 40.2184 37.1799C39.4623 37.9822 37.1614 40.2418 37.0043 40.3362C36.6159 40.5486 36.9213 40.522 34.8517 40.522C27.3946 40.5132 28.1299 40.5338 28.0291 40.3303C27.9075 40.0914 26.084 41.9999 40.8055 26.9557L57.5965 9.79639C63.8587 16.1622 62.2932 14.5692 68.5524 20.935C68.6917 20.997 68.8785 20.994 68.9704 20.9291C69.0861 20.8465 69.0653 21.2536 69.0979 18.0619L69.1068 17.1563C72.4692 17.1386 71.6301 17.1445 74.9895 17.1268L75.0695 19.7285L75.0132 22.4247C75.0132 24.5014 75.0162 23.9822 75.0013 26.0589C74.9865 27.7816 74.607 27.1799 77.6521 30.2861C79.3629 32.0324 78.933 31.5958 80.6468 33.3392Z" fill="#FEF6F3"/>
<path fill-rule="evenodd" clip-rule="evenodd" d="M84.2997 30.0088H84.3027C84.3798 30.1239 84.3442 30.0413 84.5488 30.584C84.7356 31.0472 85.0588 31.2655 85.9098 31.5014C85.9898 31.528 86.0254 31.5722 85.9958 31.6194C85.975 31.6548 86.0462 31.6312 85.5154 31.7994C84.872 32.0029 84.6526 32.2271 84.3828 32.941C84.3116 33.1268 84.1782 33.3097 84.1367 33.2802C84.0744 33.0649 84.0892 33.118 84.027 32.9026C83.8105 32.2625 83.4488 31.941 82.7105 31.7227C82.5948 31.6873 82.5563 31.643 82.5652 31.5663C82.5771 31.4926 82.5355 31.5132 82.8469 31.4129C83.5644 31.1593 83.9261 30.7404 84.0922 29.9882C84.11 29.9174 84.1218 29.8938 84.1426 29.8849C84.1782 29.8672 84.2197 29.8997 84.2997 30.0088Z" fill="#FEF6F3"/>
<path fill-rule="evenodd" clip-rule="evenodd" d="M89.6874 15.3922C89.9453 16.7373 90.3723 17.4748 91.075 17.7875L92.1424 18.1326C92.3915 18.2122 92.6613 18.345 92.6554 18.3863C92.6524 18.4099 92.7888 18.3715 91.7155 18.6518C90.5028 18.9674 89.978 19.6164 89.7081 21.1296C89.6726 21.345 89.6281 21.401 89.5243 21.3538C89.468 21.3273 89.4858 21.3804 89.4116 20.9851C89.2871 20.3774 88.8868 19.4807 88.6466 19.2565C88.1811 18.8258 88.0121 18.755 86.6956 18.4482C86.6304 18.4305 86.6008 18.404 86.6067 18.3686C86.6275 18.2388 86.6779 18.2181 87.5674 17.9674C88.5992 17.6813 89.0944 17.0972 89.4027 15.8081C89.4294 15.699 89.4442 15.5928 89.4591 15.3922C89.468 15.3184 89.5006 15.2742 89.554 15.2653C89.6221 15.2565 89.6696 15.2978 89.6874 15.3922Z" fill="#FEF6F3"/>
<path fill-rule="evenodd" clip-rule="evenodd" d="M92.6852 25.3983V25.4013C92.7356 25.3246 92.7593 25.3128 92.789 25.3482L92.8809 25.7995C93.0944 26.8054 93.6577 27.3423 94.7607 27.5812C94.8793 27.6137 94.9001 27.6461 94.8556 27.7257C94.817 27.7965 94.9208 27.7523 94.1351 28.0443C93.4294 28.3039 92.9906 28.8201 92.866 29.534C92.7978 29.9971 92.8127 29.9381 92.7593 29.9411C92.7 29.9411 92.5992 29.8201 92.534 29.6667L92.3205 29.065C92.1159 28.478 91.7364 28.1564 90.9951 27.9352C90.7223 27.8526 90.497 27.7965 90.2183 27.7375L91.6563 27.1387C92.1307 26.8467 92.1693 26.7818 92.5488 25.6608C92.5873 25.5576 92.5725 25.5871 92.6852 25.3983Z" fill="#FEF6F3"/>
<path fill-rule="evenodd" clip-rule="evenodd" d="M9.90137 96.2155L11.5885 85.1152H13.4505C15.3808 85.1152 16.3474 86.307 16.3474 88.6875C16.3474 89.2362 16.297 89.8497 16.1932 90.5253C15.9352 92.2362 15.3956 93.6108 14.5743 94.6521C13.7559 95.6934 12.7952 96.2155 11.6893 96.2155H9.90137ZM12.1993 86.2893L10.8709 95.0385H11.8791C12.7626 95.0385 13.5069 94.6492 14.1206 93.8674C14.7314 93.0887 15.1436 91.9884 15.36 90.5548C15.443 90.0149 15.4845 89.5253 15.4845 89.0857C15.4845 87.2214 14.7403 86.2893 13.2519 86.2893H12.1993Z" fill="#FEF6F3"/>
<path fill-rule="evenodd" clip-rule="evenodd" d="M20.9753 92.5691H17.5774C17.53 92.9024 17.5092 93.2063 17.5092 93.4777C17.5092 94.2682 17.7049 94.8405 18.0696 95.1237C18.2505 95.2623 18.4669 95.3302 18.7278 95.3302C19.2675 95.3302 19.8101 95.0381 20.3556 94.4482L20.1748 95.6399C19.6766 96.1443 19.0777 96.398 18.3809 96.398C17.699 96.398 17.2216 96.044 16.9429 95.3243C16.7768 94.9024 16.6968 94.3833 16.6968 93.7608C16.6968 93.3184 16.7383 92.8257 16.8213 92.28C17.0081 91.047 17.3728 90.0411 17.9154 89.2653C18.458 88.4894 19.0421 88.103 19.6707 88.103C20.3082 88.103 20.7441 88.4364 20.9842 89.1089C21.1236 89.4954 21.1918 89.9673 21.1918 90.5219C21.1918 90.9349 21.1532 91.3951 21.0791 91.9024L20.9753 92.5691ZM20.3497 91.4924C20.3942 91.1797 20.4179 90.8965 20.4179 90.6458C20.4179 90.0263 20.2756 89.5721 20.0087 89.3449C19.8694 89.2269 19.7004 89.1709 19.4987 89.1709C19.137 89.1709 18.7931 89.3862 18.4758 89.811C18.1585 90.2328 17.9154 90.7962 17.7494 91.4924H20.3497Z" fill="#FEF6F3"/>
<path fill-rule="evenodd" clip-rule="evenodd" d="M21.2246 95.4636L21.4322 94.1037C21.7731 94.6111 22.2001 94.8678 22.7042 94.8678C23.3802 94.8678 23.7775 94.4961 23.8902 93.7557C23.905 93.6524 23.9109 93.561 23.9109 93.4725C23.9109 93.381 23.902 93.2955 23.8843 93.2188C23.8072 92.9209 23.6559 92.6996 23.4069 92.5226C23.2972 92.44 23.1756 92.3486 23.0185 92.2365C22.5707 91.912 22.3335 91.6554 22.1912 91.3397C22.0845 91.1037 22.0281 90.8176 22.0281 90.499C22.0281 90.3279 22.0459 90.1362 22.0756 89.9297C22.1319 89.561 22.2327 89.2335 22.381 88.9474C22.6627 88.3958 23.0689 87.9976 23.564 87.7852C23.7953 87.6878 24.0266 87.6406 24.2667 87.6406C24.6907 87.6406 25.0436 87.7586 25.3342 87.9946L25.1385 89.2807C24.842 88.9002 24.4595 88.7085 24.0029 88.7085C23.7301 88.7085 23.4484 88.8265 23.2675 89.0182C23.1637 89.1214 23.0807 89.2394 23.0214 89.3722C22.9177 89.5757 22.8554 89.8589 22.8554 90.1332C22.8554 90.2099 22.8613 90.2778 22.8732 90.3397C22.8969 90.4813 22.9414 90.6052 23.0155 90.7114C23.1163 90.8648 23.1667 90.912 23.401 91.089C23.5344 91.1922 23.5996 91.2394 23.6737 91.2925C23.8665 91.4253 24.0384 91.5639 24.1867 91.7114C24.4891 91.9946 24.673 92.3663 24.7293 92.8029C24.7382 92.8855 24.7441 92.9769 24.7441 93.0713C24.7441 93.2424 24.7293 93.4312 24.6967 93.6318C24.6374 94.0241 24.5336 94.3633 24.3853 94.6495C24.0829 95.2247 23.6767 95.6141 23.1845 95.7999C22.9384 95.8914 22.6923 95.9386 22.4432 95.9386C21.9451 95.9386 21.5359 95.7793 21.2246 95.4636Z" fill="#FEF6F3"/>
<path fill-rule="evenodd" clip-rule="evenodd" d="M27.5818 86.2745C27.4454 86.2745 27.3387 86.1978 27.2646 86.0414C27.2142 85.9411 27.1904 85.8202 27.1904 85.6786C27.1904 85.6107 27.1964 85.534 27.2082 85.4544C27.2438 85.2125 27.3209 85.0178 27.4425 84.8644C27.564 84.7051 27.6945 84.6255 27.8279 84.6255C27.9762 84.6255 28.0829 84.7051 28.157 84.8674C28.2074 84.9677 28.2312 85.0886 28.2312 85.2302C28.2312 85.2981 28.2252 85.3747 28.2134 85.4544C28.1808 85.6786 28.1037 85.8733 27.9791 86.0355C27.8576 86.1948 27.7241 86.2745 27.5818 86.2745ZM26.4492 96.2155H25.6753L26.8821 88.2863H27.653L26.4492 96.2155Z" fill="#FEF6F3"/>
<path fill-rule="evenodd" clip-rule="evenodd" d="M32.2159 95.578C31.7742 98.4895 30.7067 99.9437 29.0137 99.9437C28.4177 99.9437 27.9285 99.7608 27.5371 99.3862L27.7298 98.1178C28.1953 98.6133 28.6757 98.8611 29.1679 98.8611C30.3539 98.8611 31.1041 97.8228 31.4184 95.749L31.5518 94.8818H31.531C31.0121 95.8965 30.3865 96.401 29.6453 96.401C29.0463 96.401 28.6164 96.047 28.3614 95.3479C28.2072 94.9319 28.1331 94.4305 28.1331 93.8464C28.1331 93.4393 28.1687 92.9909 28.2428 92.5072C28.4474 91.1591 28.8061 90.0883 29.3221 89.2918C29.8321 88.4983 30.434 88.103 31.1189 88.103C31.7682 88.103 32.1833 88.5278 32.3672 89.3862H32.385L32.554 88.2859H33.3249L32.2159 95.578ZM32.0707 91.46C32.1033 91.2476 32.1181 91.047 32.1181 90.8552C32.1181 90.1974 31.9135 89.6192 31.5874 89.3508C31.4391 89.2299 31.2642 89.1709 31.0625 89.1709C30.5881 89.1709 30.1671 89.457 29.8113 90.0263C29.4585 90.5927 29.2035 91.3921 29.0463 92.4216C28.99 92.7962 28.9603 93.1384 28.9603 93.4511C28.9603 94.224 29.1412 94.8287 29.4585 95.1207C29.6126 95.2623 29.7994 95.3302 30.0189 95.3302C30.4517 95.3302 30.8431 95.0765 31.193 94.5691C31.5399 94.0676 31.7742 93.4157 31.8928 92.631L32.0707 91.46Z" fill="#FEF6F3"/>
<path fill-rule="evenodd" clip-rule="evenodd" d="M37.6805 96.2151H36.9066L37.5945 91.693C37.6598 91.2653 37.6924 90.8906 37.6924 90.5691C37.6924 89.6369 37.4137 89.1709 36.8592 89.1709C36.4708 89.1709 36.1179 89.4069 35.7918 89.8847C35.4686 90.3626 35.2492 90.9644 35.1395 91.693L34.4516 96.2151H33.6807L34.8845 88.2859H35.6554L35.4567 89.6045H35.4745C35.9904 88.6045 36.5923 88.103 37.2832 88.103C37.8139 88.103 38.1757 88.3833 38.3654 88.9437C38.4722 89.2505 38.5226 89.634 38.5226 90.0883C38.5226 90.4659 38.487 90.8906 38.4158 91.3685L37.6805 96.2151Z" fill="#FEF6F3"/>
<path fill-rule="evenodd" clip-rule="evenodd" d="M47.7589 96.3923C47.581 96.3923 47.4297 96.354 47.3082 96.2773C47.0502 96.1003 46.902 95.8702 46.727 95.3923C46.6351 95.1445 46.558 94.9085 46.4928 94.6726C46.3327 94.8967 46.1607 95.1062 45.962 95.3156C45.7752 95.5133 45.5707 95.6932 45.3275 95.8672C45.1081 96.0236 44.8768 96.1475 44.61 96.2478C44.358 96.3451 44.0911 96.3923 43.8124 96.3923C43.1334 96.3923 42.5997 96.1062 42.2824 95.5723C42.1253 95.3038 42.0185 94.9675 41.9711 94.5664C41.9474 94.4071 41.9385 94.2389 41.9385 94.059C41.9385 93.7935 41.9622 93.5044 42.0096 93.1947C42.1282 92.4071 42.3654 91.7316 42.7242 91.174C43.083 90.6106 43.5396 90.1504 44.0911 89.7965C43.8895 89.4926 43.7649 89.2035 43.6997 88.885C43.6434 88.649 43.6137 88.3776 43.6137 88.0914C43.6137 87.5369 43.7472 86.8849 43.9666 86.3835C44.2393 85.7552 44.6159 85.3186 45.0814 85.0914C45.3097 84.9823 45.544 84.9292 45.7901 84.9292C46.051 84.9292 46.2645 84.9823 46.4453 85.0973C46.8931 85.354 47.1451 85.9292 47.1451 86.6873C47.1451 86.8761 47.1303 87.0737 47.0977 87.2802C47.0028 87.8968 46.816 88.4159 46.5402 88.826C46.2615 89.2389 45.8879 89.587 45.4165 89.8732C45.6122 90.0147 45.7812 90.1829 45.9265 90.3864C46.0688 90.587 46.1992 90.8112 46.3119 91.059C46.4335 91.3392 46.5313 91.5988 46.6055 91.8555C46.6885 92.1416 46.7715 92.4366 46.8516 92.7375C47.5246 91.5988 48.0079 90.1711 48.2451 88.6047C48.3074 88.2035 48.3222 88.0118 48.3281 87.5369H49.0753C49.0724 87.7463 49.0664 87.8908 49.0487 88.0236L48.9805 88.5664C48.9093 89.0383 48.8085 89.5103 48.6751 89.9823C48.2866 91.3717 47.7737 92.587 47.0947 93.7463C47.1481 93.938 47.2044 94.115 47.2963 94.3953C47.4268 94.767 47.578 95.0118 47.75 95.1298C47.8448 95.1888 47.9486 95.2153 48.0702 95.2153C48.2303 95.2153 48.4112 95.1534 48.6899 95L48.512 96.174C48.26 96.3186 48.005 96.3923 47.7707 96.3923C47.7678 96.3923 47.7648 96.3923 47.7589 96.3923ZM43.9814 95.292C44.4291 95.292 44.8264 95.1475 45.2653 94.8289C45.4669 94.6726 45.6448 94.5074 45.799 94.3304C45.9947 94.1032 46.1399 93.9203 46.2674 93.7375C46.1488 93.2507 46.0362 92.8318 45.9324 92.4838C45.5825 91.3982 45.2593 90.9056 44.5803 90.4248C44.0585 90.7375 43.7116 91.0442 43.4536 91.4159C43.3024 91.6224 43.169 91.8702 43.0563 92.1593C42.8754 92.6106 42.7539 93.2507 42.7539 93.7286C42.7539 94.1357 42.8398 94.5015 43 94.7581C43.2164 95.1121 43.5485 95.292 43.9814 95.292ZM46.3564 87.3894C46.3801 87.2419 46.392 87.1032 46.392 86.9823C46.392 86.8908 46.3831 86.8053 46.3712 86.7316C46.3356 86.5339 46.2852 86.3894 46.22 86.2832C46.0895 86.0708 45.8761 85.9469 45.6448 85.9439C45.3394 85.9439 45.0755 86.0796 44.8501 86.351C44.6248 86.6224 44.4736 86.9941 44.3995 87.469C44.3757 87.6224 44.3639 87.767 44.3639 87.9026C44.3639 87.9587 44.3639 88.0118 44.3698 88.0619C44.3876 88.413 44.4854 88.7611 44.6337 89.0088C44.7167 89.1416 44.7997 89.2448 44.8857 89.3245C45.3157 89.1003 45.6507 88.8378 45.8909 88.5339C46.131 88.233 46.2882 87.8466 46.3564 87.3894Z" fill="#FEF6F3"/>
<path fill-rule="evenodd" clip-rule="evenodd" d="M57.0572 96.2155H56.1173L55.462 93.1005C55.2663 92.1801 55.0617 91.7347 54.7652 91.5843C54.6585 91.5253 54.525 91.4928 54.3797 91.4928H53.7304L53.0129 96.2155H52.2212L53.9083 85.1152H55.9216C56.2181 85.1152 56.482 85.1742 56.7132 85.2922C57.1817 85.5341 57.4723 86.0444 57.5642 86.7789C57.582 86.9205 57.5909 87.071 57.5909 87.2332C57.5909 87.8438 57.4604 88.5784 57.2529 89.1359C57.0186 89.7731 56.6747 90.2922 56.2566 90.6492C56.055 90.8173 55.8297 90.953 55.5717 91.0592L55.5687 91.0887C55.8385 91.3158 55.9898 91.6167 56.1469 92.245C56.2062 92.4781 56.2566 92.6787 56.3011 92.8763L57.0572 96.2155ZM54.5191 86.2893L53.9083 90.3158C54.525 90.3158 54.3708 90.3158 54.9876 90.3158C55.3701 90.3158 55.7377 90.1211 56.0491 89.7495C56.3663 89.3571 56.5798 88.8202 56.6777 88.1801C56.7073 87.9825 56.7221 87.8025 56.7221 87.6344C56.7221 87.068 56.5472 86.6551 56.221 86.4486C56.055 86.3453 55.8474 86.2922 55.6013 86.2922L54.5191 86.2893Z" fill="#FEF6F3"/>
<path fill-rule="evenodd" clip-rule="evenodd" d="M62.3054 92.5691H58.9045C58.8601 92.9024 58.8363 93.2063 58.8363 93.4777C58.8363 94.2682 59.032 94.8405 59.3997 95.1237C59.5776 95.2623 59.797 95.3302 60.055 95.3302C60.5976 95.3302 61.1402 95.0381 61.6858 94.4482L61.5049 95.6399C61.0038 96.1443 60.4049 96.398 59.711 96.398C59.0261 96.398 58.5487 96.044 58.27 95.3243C58.1069 94.9024 58.0239 94.3833 58.0239 93.7608C58.0239 93.3184 58.0654 92.8257 58.1485 92.28C58.3353 91.047 58.7 90.0411 59.2426 89.2653C59.7852 88.4894 60.3722 88.103 61.0008 88.103C61.6353 88.103 62.0712 88.4364 62.3114 89.1089C62.4507 89.4954 62.5219 89.9673 62.5219 90.5219C62.5219 90.9349 62.4834 91.3951 62.4063 91.9024L62.3054 92.5691ZM61.6769 91.4924C61.7243 91.1797 61.7451 90.8965 61.7451 90.6458C61.7451 90.0263 61.6027 89.5721 61.3359 89.3449C61.1995 89.2269 61.0275 89.1709 60.8259 89.1709C60.4642 89.1709 60.1232 89.3862 59.803 89.811C59.4887 90.2328 59.2455 90.7962 59.0765 91.4924H61.6769Z" fill="#FEF6F3"/>
<path fill-rule="evenodd" clip-rule="evenodd" d="M66.9159 96.2151H66.142L66.8299 91.693C66.8951 91.2653 66.9277 90.8906 66.9277 90.5691C66.9277 89.6369 66.649 89.1709 66.0945 89.1709C65.7061 89.1709 65.3533 89.4069 65.0271 89.8847C64.7039 90.3626 64.4845 90.9644 64.3748 91.693L63.6869 96.2151H62.916L64.1198 88.2859H64.8907L64.6921 89.6045H64.7099C65.2258 88.6045 65.8277 88.103 66.5185 88.103C67.0493 88.103 67.411 88.3833 67.6008 88.9437C67.7075 89.2505 67.7579 89.634 67.7579 90.0883C67.7579 90.4659 67.7223 90.8906 67.6512 91.3685L66.9159 96.2151Z" fill="#FEF6F3"/>
<path fill-rule="evenodd" clip-rule="evenodd" d="M70.3524 96.401C69.6437 96.401 69.1308 96.0293 68.8195 95.2918C68.6208 94.8257 68.5229 94.2653 68.5229 93.6104C68.5229 93.221 68.5556 92.7992 68.6267 92.342C68.8284 91.0145 69.2079 89.9732 69.7623 89.224C70.3198 88.4747 70.9721 88.103 71.7222 88.103C72.4457 88.103 72.9498 88.4659 73.2433 89.1945C73.4182 89.631 73.5042 90.165 73.5042 90.8021C73.5042 91.2299 73.4657 91.7018 73.3856 92.221C73.1959 93.4806 72.8223 94.4924 72.2737 95.2564C71.7222 96.0175 71.0818 96.401 70.3524 96.401ZM71.5088 89.1709C71.0106 89.1709 70.5748 89.4482 70.2041 90.0027C69.8335 90.5573 69.5726 91.3243 69.4243 92.2977C69.365 92.6782 69.3383 93.0234 69.3383 93.339C69.3383 94.165 69.5429 94.7933 69.9136 95.106C70.0944 95.2564 70.3138 95.3302 70.5718 95.3302C71.0729 95.3302 71.4969 95.0647 71.8438 94.5337C72.1937 93.9998 72.4398 93.2505 72.588 92.2653C72.6562 91.8198 72.6918 91.4187 72.6918 91.0647C72.6918 89.8316 72.2767 89.1709 71.5088 89.1709Z" fill="#FEF6F3"/>
<path fill-rule="evenodd" clip-rule="evenodd" d="M79.0014 88.2861L75.8792 96.2153H75.1231L74.5005 88.2861H75.3485L75.6954 94.0472C75.7073 94.2684 75.7162 94.469 75.7162 94.6549C75.7162 94.8348 75.7102 95 75.6954 95.1534H75.7162C75.817 94.7227 75.9207 94.3717 76.0305 94.0767L78.189 88.2861H79.0014Z" fill="#FEF6F3"/>
<path fill-rule="evenodd" clip-rule="evenodd" d="M82.0729 96.2151H81.302L81.4888 94.9762H81.471C80.9937 95.926 80.4273 96.401 79.775 96.401C79.2917 96.401 78.9508 96.1915 78.7432 95.7756C78.6038 95.4954 78.5356 95.1532 78.5356 94.7549C78.5356 94.5544 78.5534 94.339 78.589 94.1089C78.8114 92.6281 79.4756 91.7608 80.5697 91.519L82.064 91.1915C82.1145 90.87 82.1382 90.5897 82.1382 90.3479C82.1382 89.5632 81.8861 89.1709 81.3791 89.1709C80.798 89.1709 80.2228 89.4954 79.6594 90.1443L79.8581 88.8434C80.4066 88.3479 80.9907 88.103 81.6074 88.103C82.5029 88.103 82.9506 88.7166 82.9506 89.9467C82.9506 90.2741 82.918 90.6458 82.8557 91.0588L82.0729 96.2151ZM81.9099 92.2033L80.709 92.4718C80.3384 92.5544 80.0478 92.6989 79.8314 92.9083C79.6179 93.1178 79.4726 93.4806 79.3925 94.0145C79.3748 94.1355 79.3659 94.2476 79.3659 94.3538C79.3659 94.752 79.4963 95.0706 79.7246 95.224C79.8343 95.2948 79.9648 95.3302 80.1131 95.3302C80.4985 95.3302 80.8513 95.1119 81.1627 94.6723C81.477 94.2358 81.6875 93.6723 81.7913 92.9939L81.9099 92.2033Z" fill="#FEF6F3"/>
<path fill-rule="evenodd" clip-rule="evenodd" d="M85.7737 96.1356C85.5632 96.3008 85.3112 96.3834 85.0147 96.3834C84.3564 96.3834 84.0273 95.9114 84.0273 94.9616C84.0273 94.699 84.051 94.3981 84.1044 94.0619L84.816 89.3716H83.9888L84.1518 88.2861H84.9791L85.2726 86.351L86.1088 85.9409L85.75 88.2861H86.9657L86.7996 89.3716H85.5869L84.9079 93.8377C84.8664 94.115 84.8457 94.348 84.8457 94.5427C84.8457 94.8849 84.9079 95.0914 85.0503 95.2094C85.1392 95.2802 85.2519 95.3156 85.3942 95.3156C85.5899 95.3156 85.7708 95.2271 85.9368 95.053L85.7737 96.1356Z" fill="#FEF6F3"/>
<path fill-rule="evenodd" clip-rule="evenodd" d="M88.6941 86.2745C88.5577 86.2745 88.4539 86.1978 88.3768 86.0414C88.3294 85.9411 88.3027 85.8202 88.3027 85.6786C88.3027 85.6107 88.3086 85.534 88.3205 85.4544C88.359 85.2125 88.4361 85.0178 88.5547 84.8644C88.6793 84.7051 88.8068 84.6255 88.9432 84.6255C89.0914 84.6255 89.1981 84.7051 89.2723 84.8674C89.3227 84.9677 89.3464 85.0886 89.3464 85.2302C89.3464 85.2981 89.3405 85.3747 89.3286 85.4544C89.296 85.6786 89.2159 85.8733 89.0944 86.0355C88.9728 86.1948 88.8394 86.2745 88.6941 86.2745ZM87.5614 96.2155H86.7905L87.9943 88.2863H88.7652L87.5614 96.2155Z" fill="#FEF6F3"/>
<path fill-rule="evenodd" clip-rule="evenodd" d="M91.1077 96.401C90.3991 96.401 89.8862 96.0293 89.5748 95.2918C89.3762 94.8257 89.2783 94.2653 89.2783 93.6104C89.2783 93.221 89.3139 92.7992 89.3821 92.342C89.5837 91.0145 89.9632 89.9732 90.5207 89.224C91.0751 88.4747 91.7274 88.103 92.4776 88.103C93.2011 88.103 93.7051 88.4659 93.9987 89.1945C94.1736 89.631 94.2596 90.165 94.2596 90.8021C94.2596 91.2299 94.221 91.7018 94.141 92.221C93.9512 93.4806 93.5776 94.4924 93.0291 95.2564C92.4776 96.0175 91.8371 96.401 91.1077 96.401ZM92.2641 89.1709C91.7689 89.1709 91.3301 89.4482 90.9595 90.0027C90.5889 90.5573 90.3279 91.3243 90.1797 92.2977C90.1204 92.6782 90.0937 93.0234 90.0937 93.339C90.0937 94.165 90.2983 94.7933 90.6689 95.106C90.8498 95.2564 91.0692 95.3302 91.3272 95.3302C91.8283 95.3302 92.2523 95.0647 92.5992 94.5337C92.949 93.9998 93.1951 93.2505 93.3434 92.2653C93.4116 91.8198 93.4472 91.4187 93.4472 91.0647C93.4472 89.8316 93.0321 89.1709 92.2641 89.1709Z" fill="#FEF6F3"/>
<path fill-rule="evenodd" clip-rule="evenodd" d="M98.7665 96.2151H97.9926L98.6805 91.693C98.7457 91.2653 98.7783 90.8906 98.7783 90.5691C98.7783 89.6369 98.4996 89.1709 97.9451 89.1709C97.5567 89.1709 97.2039 89.4069 96.8777 89.8847C96.5545 90.3626 96.3351 90.9644 96.2254 91.693L95.5375 96.2151H94.7666L95.9704 88.2859H96.7443L96.5427 89.6045H96.5605C97.0764 88.6045 97.6783 88.103 98.3691 88.103C98.8999 88.103 99.2616 88.3833 99.4514 88.9437C99.5581 89.2505 99.6085 89.634 99.6085 90.0883C99.6085 90.4659 99.5729 90.8906 99.5018 91.3685L98.7665 96.2151Z" fill="#FEF6F3"/>
<path fill-rule="evenodd" clip-rule="evenodd" d="M15.5554 77.8288C15.2174 79.0441 15.0454 80.1857 15.0454 81.2565C15.0454 81.2654 15.0454 81.2713 15.0454 81.2801C15.0454 81.4394 14.8201 81.5161 14.3427 81.5161C14.2656 81.5161 14.1826 81.5132 14.0907 81.5102C12.4332 81.4335 10.4496 81.3952 8.2525 81.3952C5.66994 81.3952 3.49657 81.4424 1.64934 81.5397C1.58411 81.5427 1.52481 81.5456 1.46848 81.5456C1.28761 81.5456 1.16901 81.522 1.11267 81.4807C1.03855 81.4099 1.0089 81.2742 1.0089 81.0323C1.0089 80.7904 1.22238 80.6459 1.64934 80.6016C2.14154 80.5544 2.50921 80.4011 2.75234 80.1444C2.99251 79.8937 3.11111 79.5427 3.11111 79.0943L3.11408 65.8288C3.11408 65.1444 3.02216 64.6606 2.8324 64.3332C2.61298 63.9586 2.18305 63.6666 1.51592 63.4424C1.17197 63.3273 1 63.1444 1 62.8907C1 62.7668 1.04151 62.5957 1.09488 62.5161C1.15418 62.4247 1.22534 62.3952 1.40918 62.3952C1.53074 62.3952 1.70865 62.4099 1.97846 62.4365C2.66042 62.5102 3.40762 62.5456 4.21411 62.5456C5.12141 62.5456 6.10877 62.5014 7.17619 62.4099C7.48455 62.3834 7.63873 62.3745 7.71879 62.3745C7.98564 62.3745 8.13983 62.5604 8.13983 62.8878C8.13983 63.0825 8.07459 63.2152 7.9382 63.2978C7.87594 63.3421 7.67135 63.4011 7.3274 63.4778C6.61579 63.6341 6.18883 63.8052 6.01092 64.0028C5.83302 64.1916 5.74111 64.6046 5.74111 65.2388V78.1031C5.74111 78.9055 6.02575 79.4571 6.59504 79.755C7.14357 80.0412 8.17244 80.1887 9.65496 80.1887C11.0723 80.1887 12.1219 80.0146 12.8068 79.6695C13.4799 79.3096 14.0314 78.6488 14.4643 77.6872C14.5858 77.3952 14.7519 77.2506 14.9683 77.2506C15.0395 77.2506 15.1136 77.2654 15.1966 77.2978C15.4457 77.3568 15.5762 77.4866 15.5762 77.6813C15.5762 77.7285 15.5702 77.7786 15.5554 77.8288Z" fill="#FEF6F3"/>
<path fill-rule="evenodd" clip-rule="evenodd" d="M23.1724 64.7936C23.1724 65.242 23.0063 65.6432 22.6624 66.0296C22.3244 66.3983 21.936 66.5901 21.5297 66.5901C21.0553 66.5901 20.6699 66.4573 20.3763 66.1889C20.0798 65.9175 19.9316 65.5665 19.9316 65.1387C19.9316 64.711 20.1184 64.3128 20.4831 63.9617C20.8419 63.5989 21.2303 63.416 21.6483 63.416C22.6624 63.416 23.1724 63.8732 23.1724 64.7936ZM24.8298 81.065C24.7765 81.3777 24.6253 81.5429 24.3881 81.5429C24.2783 81.5429 24.0678 81.534 23.7535 81.5104C23.1605 81.4691 22.5616 81.4485 21.9567 81.4485C21.1087 81.4485 20.2488 81.4898 19.3771 81.5665C19.2318 81.5842 19.1073 81.593 19.0035 81.593C18.6032 81.593 18.4965 81.4809 18.4965 81.065C18.4965 80.8467 18.7663 80.6609 19.2882 80.5193C19.8664 80.36 20.154 79.8319 20.154 78.9352C20.154 76.7552 20.154 77.301 20.154 75.124C20.154 74.3806 20.0739 73.8585 19.9138 73.5606C19.6855 73.1328 19.2259 72.8083 18.5588 72.596C18.2474 72.4986 18.0933 72.3423 18.0933 72.1299C18.0933 71.8467 18.3216 71.6343 18.7663 71.5045C19.6054 71.2626 20.3437 70.9293 20.9871 70.5104C21.5209 70.1623 21.8292 69.9971 21.9537 69.9971C22.3362 69.9971 22.529 70.2272 22.529 70.6904C22.529 70.7081 22.529 70.7258 22.529 70.7435C22.4904 73.121 22.4697 75.534 22.4697 77.9853C22.4697 78.1299 22.4697 78.2744 22.4697 78.419C22.4697 78.4278 22.4697 78.4367 22.4697 78.4426C22.4697 79.0502 22.5645 79.4868 22.7513 79.7582C22.9559 80.0502 23.3444 80.2567 23.9492 80.3895C24.5363 80.5193 24.8358 80.7228 24.8358 80.9912C24.8358 81.0148 24.8328 81.0384 24.8298 81.065Z" fill="#FEF6F3"/>
<path fill-rule="evenodd" clip-rule="evenodd" d="M38.8697 79.1534C38.7393 79.2773 38.3123 80.2567 37.4613 82.3717C37.3842 82.5605 37.2389 82.6549 37.0284 82.6549C36.9662 82.6549 36.898 82.646 36.8238 82.6313C36.5807 82.5841 36.4562 82.4455 36.4562 82.2183C36.4562 82.1652 36.4651 82.1062 36.4799 82.0413C36.4858 82.0148 36.4888 81.9912 36.4888 81.9676C36.4888 81.7463 36.2397 81.6048 35.7475 81.5428C34.6771 81.4071 31.7922 81.3363 27.309 81.3334C27.0392 81.3334 26.9058 81.1534 26.9058 80.7906C26.9058 80.7109 26.9236 80.6579 26.9651 80.6343C29.6484 77.9646 32.3318 75.295 35.0152 72.6284C35.1338 72.4956 35.196 72.3983 35.196 72.3393C35.196 72.2714 35.1011 72.239 34.8966 72.239C34.7928 72.239 33.4318 72.2655 30.8196 72.3186C29.8738 72.3363 29.1503 72.6077 28.6818 73.1151C28.243 73.59 27.9168 73.8201 27.6737 73.8201C27.6411 73.8201 27.6085 73.8142 27.5788 73.8053C27.3713 73.7404 27.2645 73.6402 27.2645 73.5104C27.2645 73.4484 27.2883 73.3776 27.3387 73.3039C27.5166 73.0384 27.9257 72.0885 28.8034 69.9115C28.9101 69.6756 29.0762 69.5664 29.3252 69.5664C29.6395 69.5664 29.8323 69.6667 29.939 69.882C30.0398 70.121 30.4549 70.2537 31.2229 70.2921C32.6283 70.3629 34.7394 70.413 37.912 70.4425H37.9179C38.0514 70.4425 38.167 70.5192 38.2708 70.6726C38.3775 70.8171 38.4339 70.9469 38.4368 71.062C38.4339 71.1033 38.422 71.1328 38.4072 71.1475L30.3363 79.0059C30.2029 79.1387 30.1347 79.239 30.1317 79.3098C30.1466 79.4101 30.2918 79.4543 30.6091 79.4514C32.2636 79.4455 33.9151 79.4366 35.5667 79.4248C36.4473 79.3953 37.1292 79.2655 37.6452 79.0236C38.1255 78.7994 38.4339 78.6638 38.4665 78.6638C38.5465 78.6638 38.6207 78.6814 38.7185 78.7227C38.8934 78.7758 38.9824 78.8496 38.9824 78.944C38.9824 79.0059 38.9438 79.0738 38.8697 79.1534Z" fill="#FEF6F3"/>
<path fill-rule="evenodd" clip-rule="evenodd" d="M80.5672 63.1119C80.5672 63.4393 80.2588 63.6841 79.6125 63.8729C78.9216 64.0765 78.3405 64.7343 77.872 65.8552C75.7816 70.8139 73.712 75.87 71.6306 81.0912C71.4704 81.4953 71.1117 81.7697 70.5305 81.926C70.486 81.9496 70.4623 81.9555 70.4267 81.9555C70.1451 81.9555 69.9434 81.6694 69.8159 81.0942C69.3564 78.985 67.6752 74.7667 64.8406 68.6163C63.5864 71.6605 61.92 75.8552 59.8919 81.0971C59.7259 81.5219 59.3375 81.8021 58.703 81.9555C58.4183 81.9555 58.2226 81.6694 58.1129 81.0942C57.7482 79.1886 55.6015 74.0204 51.5691 65.3508C51.1599 64.4688 50.4483 63.9172 49.4579 63.7077C48.9746 63.6045 48.7256 63.4599 48.7256 63.2859C48.7256 62.9172 48.9005 62.7313 49.2504 62.7313C49.2889 62.7313 49.3275 62.7343 49.369 62.7372C49.8019 62.7756 50.2644 62.7933 50.7596 62.7933C52.0198 62.7933 53.4845 62.6723 55.1479 62.4363C55.3495 62.4068 55.5185 62.3921 55.646 62.3921C55.8476 62.3921 55.9158 62.4186 55.9692 62.516C56.0137 62.5927 56.0641 62.8051 56.0641 62.8995C56.0641 63.0794 55.812 63.2947 55.3258 63.5248C54.6972 63.8228 54.371 64.1827 54.371 64.5779C54.371 64.752 54.4155 64.9526 54.5074 65.1827C55.5037 67.7254 57.0929 71.7638 59.2722 77.2977C59.3464 77.4865 59.4353 77.572 59.5569 77.572C59.6607 77.572 59.7467 77.4806 59.8178 77.2977L63.96 66.7048C63.7939 66.3921 63.5686 65.9408 63.284 65.3567C62.9311 64.6369 62.2996 64.0765 61.3893 63.6753C60.9653 63.4894 60.7459 63.2977 60.7459 63.1178C60.7459 63.106 60.7459 63.0942 60.7488 63.0824C60.7874 62.7018 60.9683 62.513 61.2855 62.513C61.327 62.513 61.3745 62.516 61.4219 62.5248C62.4033 62.6753 63.4559 62.752 64.5737 62.752C65.4573 62.752 66.3824 62.7048 67.349 62.6074C67.5062 62.5927 67.6396 62.5838 67.7523 62.5838C68.0221 62.5838 68.1288 62.6222 68.1792 62.7343C68.2148 62.811 68.2326 62.929 68.2326 63.0824C68.2326 63.3242 67.9865 63.5101 67.4706 63.6723C66.4803 63.9791 66.0059 64.2829 66.0059 64.6074C66.0059 64.7431 66.0563 64.9349 66.1541 65.1827L70.9664 77.2977C71.0435 77.4983 71.1354 77.5868 71.2629 77.5868C71.3696 77.5868 71.4734 77.4806 71.5446 77.2977L76.0129 65.8287C76.0959 65.575 76.1315 65.3832 76.1315 65.2092C76.1315 64.5543 75.5414 64.0352 74.3525 63.6458C73.9255 63.5071 73.712 63.3006 73.712 63.0293C73.712 62.8316 73.7802 62.6546 73.8781 62.6104C73.9285 62.5868 74.0263 62.5779 74.1657 62.5779C74.3021 62.5779 74.4829 62.5897 74.6964 62.6133C75.7016 62.7284 76.683 62.7844 77.6377 62.7844C78.4205 62.7844 79.1825 62.7461 79.9268 62.6664C79.9712 62.6635 80.0157 62.6605 80.0572 62.6605C80.3952 62.6605 80.5672 62.811 80.5672 63.1119Z" fill="#FEF6F3"/>
<path fill-rule="evenodd" clip-rule="evenodd" d="M88.3946 64.7936C88.3946 65.242 88.2285 65.6432 87.8846 66.0296C87.5465 66.3983 87.1581 66.5901 86.7519 66.5901C86.2775 66.5901 85.8921 66.4573 85.5985 66.1889C85.302 65.9175 85.1538 65.5665 85.1538 65.1387C85.1538 64.711 85.3406 64.3128 85.7053 63.9617C86.064 63.5989 86.4524 63.416 86.8705 63.416C87.8846 63.416 88.3946 63.8732 88.3946 64.7936ZM90.052 81.065C89.9986 81.3777 89.8474 81.5429 89.6102 81.5429C89.5005 81.5429 89.29 81.534 88.9757 81.5104C88.3827 81.4691 87.7838 81.4485 87.1789 81.4485C86.3309 81.4485 85.471 81.4898 84.5993 81.5665C84.454 81.5842 84.3295 81.593 84.2257 81.593C83.8254 81.593 83.7187 81.4809 83.7187 81.065C83.7187 80.8467 83.9885 80.6609 84.5103 80.5193C85.0885 80.36 85.3761 79.8319 85.3761 78.9352C85.3761 76.7552 85.3761 77.301 85.3761 75.124C85.3761 74.3806 85.2961 73.8585 85.136 73.5606C84.9077 73.1328 84.4481 72.8083 83.778 72.596C83.4696 72.4986 83.3154 72.3423 83.3154 72.1299C83.3154 71.8467 83.5437 71.6343 83.9885 71.5045C84.8276 71.2626 85.5659 70.9293 86.2093 70.5104C86.743 70.1623 87.0514 69.9971 87.173 69.9971C87.5584 69.9971 87.7511 70.2272 87.7511 70.6904C87.7511 70.7081 87.7511 70.7258 87.7511 70.7435C87.7126 73.121 87.6918 75.534 87.6918 77.9853C87.6918 78.1299 87.6918 78.2744 87.6918 78.419C87.6918 78.4278 87.6918 78.4367 87.6918 78.4426C87.6918 79.0502 87.7867 79.4868 87.9735 79.7582C88.1781 80.0502 88.5665 80.2567 89.1684 80.3895C89.7585 80.5193 90.0579 80.7228 90.0579 80.9912C90.0579 81.0148 90.055 81.0384 90.052 81.065Z" fill="#FEF6F3"/>
<path fill-rule="evenodd" clip-rule="evenodd" d="M98.983 81.006C98.983 81.3511 98.8081 81.5163 98.4464 81.5163C98.4049 81.5163 98.3574 81.5134 98.31 81.5104C97.7318 81.4544 97.0913 81.4278 96.3797 81.4278C95.4487 81.4278 94.3961 81.475 93.2042 81.5665C93.047 81.5842 92.9106 81.593 92.795 81.593C92.626 81.593 92.5104 81.5753 92.457 81.5399C92.3562 81.4839 92.3058 81.3305 92.3058 81.0827C92.3058 80.8349 92.5578 80.652 93.1271 80.4868C93.3702 80.416 93.56 80.2803 93.6934 80.0797C93.8535 79.8379 93.9336 79.4986 93.9336 79.065V66.0591C93.9336 65.2921 93.8179 64.714 93.5926 64.3482C93.3524 63.9883 92.9314 63.7022 92.3502 63.5016C92.0478 63.4042 91.8877 63.2479 91.8877 63.0561C91.8877 62.7671 92.113 62.5517 92.5608 62.4072C93.2664 62.183 93.9662 61.8556 94.6659 61.4308C95.2619 61.0856 95.6385 60.9146 95.8016 60.9146C96.1692 60.9146 96.3531 61.1535 96.3531 61.6373C96.3204 62.4632 96.3293 62.2567 96.2967 63.0827C96.273 63.77 96.2611 64.4455 96.2641 65.1151L96.3204 78.7228C96.3234 79.3069 96.4717 79.7258 96.7711 80.0001C97.0676 80.2597 97.5806 80.4308 98.31 80.5193C98.7518 80.5606 98.983 80.7287 98.983 81.006Z" fill="#FEF6F3"/>
<path fill-rule="evenodd" clip-rule="evenodd" d="M107.706 81.006C107.706 81.3511 107.528 81.5163 107.167 81.5163C107.125 81.5163 107.081 81.5134 107.033 81.5104C106.455 81.4544 105.812 81.4278 105.1 81.4278C104.172 81.4278 103.119 81.475 101.924 81.5665C101.77 81.5842 101.634 81.593 101.518 81.593C101.349 81.593 101.233 81.5753 101.177 81.5399C101.079 81.4839 101.029 81.3305 101.029 81.0827C101.029 80.8349 101.278 80.652 101.85 80.4868C102.093 80.416 102.283 80.2803 102.417 80.0797C102.577 79.8379 102.657 79.4986 102.657 79.065V66.0591C102.657 65.2921 102.541 64.714 102.313 64.3482C102.073 63.9883 101.655 63.7022 101.073 63.5016C100.771 63.4042 100.611 63.2479 100.611 63.0561C100.611 62.7671 100.833 62.5517 101.284 62.4072C101.99 62.183 102.689 61.8556 103.389 61.4308C103.982 61.0856 104.362 60.9146 104.525 60.9146C104.892 60.9146 105.076 61.1535 105.076 61.6373C105.041 62.4632 105.05 62.2567 105.02 63.0827C104.993 63.77 104.981 64.4455 104.984 65.1151L105.044 78.7228C105.044 79.3069 105.192 79.7258 105.494 80.0001C105.791 80.2597 106.304 80.4308 107.033 80.5193C107.472 80.5606 107.706 80.7287 107.706 81.006Z" fill="#FEF6F3"/>
</g>
<defs>
<clipPath id="clip0_178_454">
<rect width="109" height="100" fill="white"/>
</clipPath>
</defs>
</svg>
