<svg width="65" height="50" viewBox="0 0 65 50" fill="none" xmlns="http://www.w3.org/2000/svg">
<g clip-path="url(#clip0_226_699)">
<path fill-rule="evenodd" clip-rule="evenodd" d="M7.5894 32.0577H7.5876C10.8683 31.1744 10.6173 31.2476 11.1373 31.0227C12.1087 30.6052 12.5691 29.9628 12.589 29.001C12.6016 28.3532 12.6197 28.487 12.3488 27.1148C12.2929 26.8311 12.329 26.708 12.468 26.7097C12.5908 26.7097 12.264 25.5927 14.7538 34.5274C14.8387 34.8718 14.8297 34.9342 14.6888 34.9378C14.5209 34.9431 14.5191 34.9378 14.214 34.0366C13.7482 32.6626 13.0007 31.9274 11.9805 31.8418C11.2727 31.7811 11.2998 31.7775 9.75427 32.2112C8.7919 32.4592 9.03204 32.3967 8.06968 32.6466C7.43593 32.8125 7.59482 32.7518 6.95204 33.0677C6.53857 33.2711 4.67885 33.785 4.34302 33.7886C3.94218 33.7832 3.70565 33.512 3.80315 33.164C3.8844 32.9196 3.95843 32.8732 4.54163 32.7072C5.75677 32.361 6.5819 32.1612 6.76968 32.1683C7.19218 32.188 7.07482 32.204 7.5894 32.0577Z" fill="#FEF6F3"/>
<path fill-rule="evenodd" clip-rule="evenodd" d="M14.7996 25.4376H14.7978L17.3743 34.8201H15.3015C13.9672 30.0075 14.3013 31.2102 12.9688 26.3976L14.7779 25.3608C14.7906 25.4037 14.7869 25.393 14.7996 25.4376Z" fill="#FEF6F3"/>
<path fill-rule="evenodd" clip-rule="evenodd" d="M26.9061 27.9769L26.9097 27.9786C24.1581 27.4255 22.7967 27.3113 20.3826 27.429C19.6063 27.4665 17.8874 27.727 16.8185 27.9662C16.5531 28.025 16.6199 28.0108 16.3544 28.0696C16.1576 27.4754 16.2064 27.6235 16.0078 27.0293L17.5985 26.5975C18.8822 26.3584 19.1458 26.3298 20.9965 26.2442C21.4967 26.221 21.7874 26.1603 21.7693 26.0818C21.7242 25.8873 20.5831 25.8248 18.7324 25.914C17.9758 25.9515 17.8206 25.9783 16.1053 26.3744C15.9193 26.4173 15.8363 26.3816 15.8326 26.2567C15.8254 25.9587 15.8742 25.9176 16.4321 25.7463C19.0447 24.9451 22.1557 24.8773 25.8499 25.5429C27.4604 25.8337 27.1228 25.7624 28.2115 26.0354L30.0388 26.494L32.3354 27.1971L33.2129 27.5522C34.0254 27.8805 33.4856 27.6967 36.9938 28.8441C37.855 29.126 37.5986 29.0529 38.7921 29.3634C39.2814 29.5061 39.1586 29.4704 39.6479 29.6096C40.3647 29.813 42.4953 30.2484 43.064 30.3073L44.4796 30.4911C45.8933 30.6731 47.6375 30.7427 49.3112 30.6803C50.326 30.6428 52.2814 30.2681 53.2582 29.9255C54.8381 29.3705 55.8853 28.8227 56.9379 28.0036C57.2394 27.7699 57.5428 27.5022 58.0032 27.0632C58.1928 26.883 58.1747 26.8955 58.2289 26.9133C58.2524 26.9223 58.2433 26.9633 58.1711 27.1667C57.9039 27.8359 56.8693 29.3812 56.2067 30.1057C55.1269 31.2816 54.4932 31.7813 53.0578 32.5878C51.7343 33.332 50.8929 33.6442 49.239 34.0029L47.7783 34.3205C47.336 34.3973 47.5707 34.3741 46.1353 34.474C44.3785 34.5971 43.3656 34.5918 40.8974 34.449L37.5047 34.1403C36.7247 34.0243 36.9197 34.0529 36.1415 33.9387C35.5042 33.8869 35.7642 33.9208 34.3125 33.6995L30.9072 33.1803L29.7463 33.0322C28.8254 32.9144 29.0258 32.9358 28.3415 32.8769L26.4944 32.6521C24.9669 32.4665 21.8614 32.4522 20.9622 32.6271C20.6733 32.6824 20.7799 32.6646 20.2183 32.7467C19.7272 32.818 19.5142 32.8823 18.2575 33.3462L17.8513 33.4961L17.5443 32.429C18.2051 32.0989 18.0101 32.1756 18.9039 31.8955C20.3772 31.4315 21.8921 31.2977 24.7069 31.3833C25.8318 31.4172 27.984 31.7081 30.1038 32.1114C33.4188 32.7413 32.59 32.5825 35.9032 33.2195C37.6781 33.4604 38.4996 33.5372 38.7794 33.4872C38.8499 33.4783 38.8499 33.4747 38.765 33.4337C38.7325 33.4194 38.7488 33.4301 38.6531 33.3605C38.5628 33.307 38.895 33.373 36.3275 32.9001C33.5993 32.2613 34.2818 32.4183 31.5518 31.792C28.6015 31.1157 28.0057 31.0068 25.8824 30.7588C24.2194 30.5661 23.6814 30.5375 22.264 30.5679C21.2006 30.5911 20.0775 30.7481 18.8786 31.039C18.2232 31.2335 18.3875 31.1853 17.7321 31.378C17.4703 31.4547 17.5353 31.4351 17.2753 31.51C16.8763 30.0307 16.9756 30.4001 16.5783 28.9208L18.2593 28.5782C19.4076 28.3427 22.0383 28.1731 23.2083 28.2588L24.1689 28.2784L25.4743 28.3891C26.35 28.464 26.0792 28.4265 27.3611 28.6514C29.0547 28.9494 28.6304 28.8744 30.324 29.1724C30.1074 28.9387 30.1651 28.9815 29.9196 28.8709C29.5133 28.7013 27.4875 28.0982 26.9567 27.9876C26.9278 27.9804 26.935 27.9822 26.9061 27.9769ZM36.6326 30.0058C36.5207 30.0111 36.4719 30.0789 36.3672 30.3698C36.3311 30.4679 36.1433 30.6838 36.0476 30.7392C35.5764 30.9979 35.636 30.9622 35.6306 30.9836L35.636 30.9658C35.6324 30.9783 35.6378 30.989 35.6558 30.9997C35.7461 31.0532 35.7335 31.0461 35.7461 31.0568C35.831 31.13 35.7967 31.1085 35.9826 31.2103L36.6507 31.9865C36.6868 31.9098 36.7103 31.8651 36.7482 31.7902C36.9829 31.3387 36.9288 31.4119 37.131 31.2763C37.6347 30.9515 37.5733 30.9979 37.5697 30.9622C37.5661 30.9265 37.4776 30.8516 37.3838 30.807C37.0082 30.6446 36.9432 30.5821 36.7807 30.2145C36.6814 29.9719 36.7013 30.0022 36.6326 30.0058ZM45.2794 32.4915C45.2108 32.4665 45.2469 32.4397 45.0194 32.6735L44.7974 32.9019C44.7251 32.9911 44.7288 33.0108 44.8263 33.1178L44.9544 33.2606C45.0393 33.3641 45.0176 33.3391 45.1025 33.4426C45.1928 33.5354 45.2506 33.5497 45.3083 33.4943C45.5376 33.2731 45.4997 33.307 45.5774 33.2534C45.6694 33.191 45.6478 33.207 45.7399 33.1464C45.8247 33.0679 45.8175 32.9911 45.7146 32.8983C45.2397 32.4415 45.3011 32.4986 45.2794 32.4915Z" fill="#FEF6F3"/>
<path fill-rule="evenodd" clip-rule="evenodd" d="M36.0138 20.923L36.0066 20.9176L36.2431 20.9141L36.2467 22.5789L34.5693 22.5736L34.5784 20.9337L36.0138 20.923Z" fill="#FEF6F3"/>
<path fill-rule="evenodd" clip-rule="evenodd" d="M34.9846 18.7882L34.999 18.7864C35.7176 18.7739 35.5389 18.7775 36.2575 18.7632L36.2394 20.412C35.2789 20.4013 35.519 20.4031 34.5584 20.3942L34.5566 18.7953L34.9846 18.7882Z" fill="#FEF6F3"/>
<path fill-rule="evenodd" clip-rule="evenodd" d="M38.2918 20.9297L38.3008 20.9315C38.4073 20.9333 38.3802 20.9333 38.4868 20.9333C38.447 21.8844 38.4561 21.647 38.4163 22.5999L36.7715 22.5482L36.8058 20.9297H38.2918Z" fill="#FEF6F3"/>
<path fill-rule="evenodd" clip-rule="evenodd" d="M38.4388 18.7852C38.4442 19.7095 38.4424 19.4775 38.4478 20.4019C37.4818 20.3983 37.7238 20.4001 36.7578 20.3983L36.8409 18.7852C37.6877 18.7852 37.4764 18.7852 38.3214 18.7852H38.4388Z" fill="#FEF6F3"/>
<path fill-rule="evenodd" clip-rule="evenodd" d="M58.2418 22.5981L58.2436 22.5927C58.2616 22.557 58.2833 22.5535 58.3104 22.582C58.3934 22.6641 58.3952 22.7087 58.3501 23.2369C58.2941 23.865 57.8879 25.1587 57.5647 25.728C56.9291 26.8522 56.382 27.4286 55.463 27.9407L55.0802 28.1852C54.3165 28.6723 52.9858 29.0738 51.6569 29.2183C51.3175 29.2558 51.3825 29.2469 51.2001 29.2737C50.9762 29.3076 50.7234 29.2772 50.6783 29.213C50.653 29.1791 50.7018 29.138 50.8354 29.0774L51.3265 28.9435C51.9205 28.7829 53.4733 28.1405 53.9391 27.8622C55.0297 27.2109 55.3673 26.9664 55.8964 26.4364C56.3423 25.9903 56.9147 25.3086 57.1422 24.9518C57.6604 24.1381 57.9439 23.5331 58.2364 22.6159L58.2418 22.5981Z" fill="#FEF6F3"/>
<path fill-rule="evenodd" clip-rule="evenodd" d="M50.3836 8.62446H50.38C50.6707 9.04737 50.7646 9.20261 50.8639 9.43102C50.9162 9.52917 50.9018 9.50418 50.9542 9.60054C50.918 9.63802 51.0426 9.78077 50.0749 8.61018C47.8504 5.91568 44.8731 3.73153 41.8181 2.54845C39.7507 1.74902 37.9 1.32611 35.8489 1.18514C30.5749 0.822899 25.9219 2.20227 21.7565 5.36251C18.4993 7.83395 15.8704 11.6509 14.7618 15.5231C13.9493 18.3603 13.7742 20.6034 14.1154 23.8064C14.184 24.4667 14.1912 24.4274 13.9944 24.4827C13.6929 24.5684 13.1494 24.4863 13.0664 24.3418C12.7757 23.8296 12.5879 20.6837 12.7414 18.9314C12.9617 16.4421 13.451 14.4917 14.4205 12.2576C15.3414 10.1341 17.0892 7.62696 18.7286 6.07271L19.9636 4.90391C22.049 3.1962 23.8185 2.18978 26.4149 1.23689C28.7296 0.387496 30.8728 0.0163334 33.5306 0.000273458C35.7929 -0.0122176 38.2051 0.403556 40.3592 1.178C41.7892 1.69014 42.8292 2.16658 43.9865 2.83753C46.5667 4.33467 48.6575 6.22617 50.3836 8.62446Z" fill="#FEF6F3"/>
<path fill-rule="evenodd" clip-rule="evenodd" d="M48.5004 20.1679L48.504 20.1661L51.4164 23.1389C52.2325 23.9723 52.1512 23.8902 52.3895 24.1168C52.5033 24.2328 52.525 24.3631 52.4437 24.4541C52.3986 24.504 52.7868 24.4969 49.7245 24.5076C46.6894 24.5183 47.195 24.6486 46.1875 23.594C45.8787 23.312 45.9564 23.3816 45.6476 23.0997L34.4875 11.7632C33.7779 12.3663 34.3159 11.8345 30.7247 15.498C27.4494 18.8402 28.2709 18.0069 24.974 21.3277C24.3511 21.9951 24.5082 21.8292 23.8816 22.4912C23.4212 22.9766 22.0201 24.3434 21.9244 24.4005C21.6879 24.529 21.8739 24.513 20.6136 24.513C16.0726 24.5076 16.5204 24.5201 16.459 24.397C16.385 24.2524 15.2745 25.407 24.2391 16.3063L34.464 5.92627C38.2773 9.77708 37.324 8.81349 41.1355 12.6643C41.2204 12.7018 41.3341 12.7 41.3901 12.6607C41.4605 12.6108 41.4479 12.857 41.4677 10.9263L41.4732 10.3784C43.5207 10.3677 43.0097 10.3713 45.0554 10.3606L45.1041 11.9345L45.0698 13.5654C45.0698 14.8217 45.0716 14.5076 45.0626 15.7639C45.0536 16.806 44.8225 16.442 46.6768 18.321C47.7186 19.3774 47.4568 19.1133 48.5004 20.1679Z" fill="#FEF6F3"/>
<path fill-rule="evenodd" clip-rule="evenodd" d="M50.7259 18.1534H50.7278C50.7747 18.223 50.753 18.173 50.8776 18.5013C50.9914 18.7815 51.1882 18.9136 51.7064 19.0563C51.7551 19.0724 51.7768 19.0991 51.7587 19.1277C51.7461 19.1491 51.7894 19.1348 51.4662 19.2365C51.0744 19.3597 50.9408 19.4953 50.7765 19.9271C50.7332 20.0395 50.6519 20.1502 50.6266 20.1323C50.5887 20.0021 50.5977 20.0342 50.5598 19.9039C50.428 19.5167 50.2077 19.3222 49.7582 19.1901C49.6877 19.1687 49.6643 19.142 49.6697 19.0956C49.6769 19.051 49.6516 19.0634 49.8412 19.0028C50.2782 18.8493 50.4984 18.5959 50.5996 18.1409C50.6104 18.0981 50.6176 18.0838 50.6302 18.0784C50.6519 18.0677 50.6772 18.0874 50.7259 18.1534Z" fill="#FEF6F3"/>
<path fill-rule="evenodd" clip-rule="evenodd" d="M54.0063 9.31132C54.1634 10.125 54.4234 10.5711 54.8513 10.7603L55.5013 10.9691C55.653 11.0172 55.8173 11.0975 55.8137 11.1225C55.8119 11.1368 55.8949 11.1136 55.2413 11.2831C54.5028 11.4741 54.1832 11.8666 54.0189 12.7821C53.9973 12.9123 53.9702 12.9462 53.907 12.9177C53.8727 12.9016 53.8835 12.9337 53.8384 12.6946C53.7626 12.327 53.5188 11.7846 53.3726 11.6489C53.0891 11.3884 52.9862 11.3456 52.1845 11.16C52.1448 11.1493 52.1267 11.1332 52.1303 11.1118C52.143 11.0333 52.1737 11.0208 52.7153 10.8691C53.3437 10.696 53.6452 10.3427 53.833 9.56293C53.8492 9.49691 53.8583 9.43267 53.8673 9.31132C53.8727 9.26671 53.8926 9.23995 53.9251 9.23459C53.9666 9.22924 53.9955 9.25422 54.0063 9.31132Z" fill="#FEF6F3"/>
<path fill-rule="evenodd" clip-rule="evenodd" d="M55.8313 15.3641V15.3659C55.862 15.3195 55.8765 15.3124 55.8945 15.3338L55.9505 15.6068C56.0805 16.2153 56.4235 16.5401 57.0952 16.6846C57.1674 16.7042 57.1801 16.7239 57.153 16.7721C57.1295 16.8149 57.1927 16.7881 56.7142 16.9648C56.2845 17.1218 56.0173 17.4341 55.9415 17.8659C55.8999 18.1461 55.909 18.1104 55.8765 18.1122C55.8404 18.1122 55.779 18.039 55.7392 17.9462L55.6092 17.5822C55.4847 17.2271 55.2535 17.0326 54.8022 16.8987C54.636 16.8488 54.4988 16.8149 54.3291 16.7792L55.2048 16.417C55.4937 16.2403 55.5172 16.201 55.7483 15.5229C55.7717 15.4605 55.7627 15.4783 55.8313 15.3641Z" fill="#FEF6F3"/>
<path fill-rule="evenodd" clip-rule="evenodd" d="M8.86347 47.0806C8.65764 47.8158 8.55292 48.5064 8.55292 49.1541C8.55292 49.1595 8.55292 49.163 8.55292 49.1684C8.55292 49.2647 8.41569 49.3111 8.125 49.3111C8.07806 49.3111 8.0275 49.3094 7.97153 49.3076C6.96222 49.2612 5.75431 49.238 4.41639 49.238C2.84375 49.238 1.52028 49.2665 0.395417 49.3254C0.355694 49.3272 0.319583 49.329 0.285278 49.329C0.175139 49.329 0.102917 49.3147 0.0686111 49.2897C0.0234722 49.2469 0.00541667 49.1648 0.00541667 49.0185C0.00541667 48.8722 0.135417 48.7847 0.395417 48.758C0.695139 48.7294 0.919028 48.6366 1.06708 48.4814C1.21333 48.3297 1.28556 48.1174 1.28556 47.8461L1.28736 39.8215C1.28736 39.4075 1.23139 39.1149 1.11583 38.9168C0.982222 38.6902 0.720417 38.5135 0.314167 38.3779C0.104722 38.3083 0 38.1977 0 38.0442C0 37.9693 0.0252778 37.8658 0.0577778 37.8176C0.0938889 37.7623 0.137222 37.7444 0.249167 37.7444C0.323194 37.7444 0.431528 37.7533 0.595833 37.7694C1.01111 37.814 1.46611 37.8354 1.95722 37.8354C2.50972 37.8354 3.11097 37.8087 3.76097 37.7533C3.94875 37.7373 4.04264 37.7319 4.09139 37.7319C4.25389 37.7319 4.34778 37.8444 4.34778 38.0424C4.34778 38.1602 4.30806 38.2405 4.225 38.2905C4.18708 38.3172 4.0625 38.3529 3.85306 38.3993C3.41972 38.4939 3.15972 38.5974 3.05139 38.7169C2.94306 38.8311 2.88708 39.081 2.88708 39.4646V47.2465C2.88708 47.7319 3.06042 48.0656 3.40708 48.2458C3.74111 48.4189 4.36764 48.5081 5.27042 48.5081C6.13347 48.5081 6.77264 48.4029 7.18972 48.1941C7.59958 47.9764 7.93542 47.5767 8.19903 46.9949C8.27306 46.8183 8.37417 46.7308 8.50597 46.7308C8.54931 46.7308 8.59444 46.7398 8.645 46.7594C8.79667 46.7951 8.87611 46.8736 8.87611 46.9914C8.87611 47.0199 8.8725 47.0503 8.86347 47.0806Z" fill="#FEF6F3"/>
<path fill-rule="evenodd" clip-rule="evenodd" d="M13.5021 39.1951C13.5021 39.4664 13.401 39.7091 13.1915 39.9428C12.9857 40.1659 12.7492 40.2819 12.5018 40.2819C12.2129 40.2819 11.9782 40.2016 11.7995 40.0392C11.6189 39.875 11.5286 39.6627 11.5286 39.4039C11.5286 39.1452 11.6424 38.9043 11.8645 38.6919C12.0829 38.4725 12.3195 38.3618 12.574 38.3618C13.1915 38.3618 13.5021 38.6384 13.5021 39.1951ZM14.5114 49.0381C14.4789 49.2273 14.3868 49.3272 14.2424 49.3272C14.1756 49.3272 14.0474 49.3218 13.856 49.3076C13.4949 49.2826 13.1302 49.2701 12.7618 49.2701C12.2454 49.2701 11.7218 49.2951 11.191 49.3415C11.1025 49.3522 11.0267 49.3575 10.9635 49.3575C10.7197 49.3575 10.6547 49.2897 10.6547 49.0381C10.6547 48.9061 10.819 48.7936 11.1368 48.708C11.4889 48.6116 11.664 48.2922 11.664 47.7497C11.664 46.431 11.664 46.7612 11.664 45.4442C11.664 44.9946 11.6153 44.6787 11.5178 44.4985C11.3788 44.2398 11.0989 44.0435 10.6927 43.915C10.5031 43.8561 10.4092 43.7615 10.4092 43.633C10.4092 43.4617 10.5482 43.3333 10.819 43.2547C11.33 43.1084 11.7796 42.9068 12.1714 42.6534C12.4964 42.4428 12.6842 42.3429 12.76 42.3429C12.9929 42.3429 13.1103 42.4821 13.1103 42.7622C13.1103 42.7729 13.1103 42.7837 13.1103 42.7944C13.0868 44.2326 13.0742 45.6923 13.0742 47.1751C13.0742 47.2626 13.0742 47.35 13.0742 47.4375C13.0742 47.4428 13.0742 47.4482 13.0742 47.4517C13.0742 47.8193 13.132 48.0834 13.2457 48.2476C13.3703 48.4243 13.6068 48.5492 13.9752 48.6295C14.3327 48.708 14.515 48.8311 14.515 48.9935C14.515 49.0078 14.5132 49.022 14.5114 49.0381Z" fill="#FEF6F3"/>
<path fill-rule="evenodd" clip-rule="evenodd" d="M23.0608 47.8819C22.9814 47.9569 22.7214 48.5493 22.2032 49.8288C22.1562 49.943 22.0678 50.0001 21.9396 50.0001C21.9016 50.0001 21.8601 49.9947 21.815 49.9858C21.6669 49.9572 21.5911 49.8734 21.5911 49.736C21.5911 49.7038 21.5965 49.6682 21.6055 49.6289C21.6091 49.6128 21.6109 49.5986 21.6109 49.5843C21.6109 49.4505 21.4593 49.3648 21.1596 49.3273C20.5078 49.2452 18.7509 49.2024 16.0209 49.2006C15.8566 49.2006 15.7754 49.0918 15.7754 48.8723C15.7754 48.8241 15.7862 48.792 15.8115 48.7777C17.4455 47.1628 19.0796 45.5479 20.7136 43.9348C20.7858 43.8545 20.8237 43.7956 20.8237 43.7599C20.8237 43.7188 20.7659 43.6992 20.6414 43.6992C20.5782 43.6992 19.7494 43.7153 18.1587 43.7474C17.5828 43.7581 17.1422 43.9223 16.8569 44.2292C16.5897 44.5165 16.3911 44.6557 16.243 44.6557C16.2232 44.6557 16.2033 44.6521 16.1853 44.6468C16.0589 44.6075 15.9939 44.5468 15.9939 44.4683C15.9939 44.4308 16.0083 44.388 16.039 44.3434C16.1473 44.1828 16.3965 43.6082 16.9309 42.2913C16.9959 42.1485 17.0971 42.0825 17.2487 42.0825C17.4401 42.0825 17.5575 42.1432 17.6225 42.2735C17.6839 42.418 17.9366 42.4983 18.4043 42.5215C19.2601 42.5643 20.5457 42.5947 22.4776 42.6125H22.4812C22.5625 42.6125 22.6329 42.6589 22.6961 42.7517C22.7611 42.8391 22.7954 42.9176 22.7972 42.9872C22.7954 43.0122 22.7882 43.0301 22.7791 43.039L17.8644 47.7927C17.7832 47.873 17.7416 47.9337 17.7398 47.9765C17.7489 48.0372 17.8373 48.064 18.0305 48.0622C19.038 48.0586 20.0437 48.0532 21.0494 48.0461C21.5857 48.0283 22.0009 47.9497 22.3151 47.8034C22.6076 47.6678 22.7954 47.5857 22.8153 47.5857C22.864 47.5857 22.9091 47.5964 22.9687 47.6214C23.0753 47.6535 23.1294 47.6981 23.1294 47.7552C23.1294 47.7927 23.1059 47.8338 23.0608 47.8819Z" fill="#FEF6F3"/>
<path fill-rule="evenodd" clip-rule="evenodd" d="M48.4514 38.1781C48.4514 38.3762 48.2636 38.5243 47.87 38.6385C47.4493 38.7616 47.0954 39.1595 46.8101 39.8376C45.5372 42.8372 44.2769 45.8958 43.0094 49.0542C42.9119 49.2987 42.6935 49.4646 42.3396 49.5592C42.3125 49.5735 42.298 49.5771 42.2764 49.5771C42.1049 49.5771 41.9821 49.404 41.9044 49.056C41.6246 47.7801 40.6008 45.2284 38.8747 41.5078C38.111 43.3494 37.0962 45.8868 35.8612 49.0578C35.7601 49.3148 35.5236 49.4843 35.1372 49.5771C34.9639 49.5771 34.8447 49.404 34.7779 49.056C34.5558 47.9033 33.2486 44.7769 30.7931 39.5325C30.5439 38.9989 30.1105 38.6652 29.5075 38.5385C29.2132 38.4761 29.0615 38.3886 29.0615 38.2834C29.0615 38.0603 29.168 37.9479 29.3811 37.9479C29.4046 37.9479 29.4281 37.9497 29.4533 37.9515C29.7169 37.9747 29.9986 37.9854 30.3001 37.9854C31.0675 37.9854 31.9594 37.9122 32.9724 37.7694C33.0951 37.7516 33.1981 37.7427 33.2757 37.7427C33.3985 37.7427 33.44 37.7587 33.4725 37.8176C33.4996 37.864 33.5303 37.9925 33.5303 38.0496C33.5303 38.1584 33.3768 38.2887 33.0807 38.4279C32.6979 38.6081 32.4993 38.8258 32.4993 39.0649C32.4993 39.1702 32.5264 39.2916 32.5824 39.4308C33.189 40.9689 34.1568 43.4118 35.4839 46.7594C35.529 46.8736 35.5832 46.9254 35.6572 46.9254C35.7204 46.9254 35.7728 46.8701 35.8161 46.7594L38.3385 40.3515C38.2374 40.1624 38.1001 39.8894 37.9268 39.536C37.7119 39.1006 37.3274 38.7616 36.773 38.5189C36.5149 38.4065 36.3812 38.2905 36.3812 38.1816C36.3812 38.1745 36.3812 38.1674 36.383 38.1602C36.4065 37.93 36.5167 37.8158 36.7099 37.8158C36.7351 37.8158 36.764 37.8176 36.7929 37.823C37.3905 37.914 38.0315 37.9604 38.7122 37.9604C39.2503 37.9604 39.8136 37.9318 40.4022 37.8729C40.4979 37.864 40.5792 37.8587 40.6478 37.8587C40.8121 37.8587 40.8771 37.8819 40.9078 37.9497C40.9294 37.9961 40.9403 38.0674 40.9403 38.1602C40.9403 38.3066 40.7904 38.419 40.4762 38.5171C39.8732 38.7027 39.5843 38.8865 39.5843 39.0828C39.5843 39.1649 39.615 39.2809 39.6746 39.4308L42.605 46.7594C42.6519 46.8808 42.7079 46.9343 42.7856 46.9343C42.8505 46.9343 42.9137 46.8701 42.9571 46.7594L45.6781 39.8215C45.7286 39.6681 45.7503 39.5521 45.7503 39.4468C45.7503 39.0507 45.391 38.7366 44.6669 38.5011C44.4069 38.4172 44.2769 38.2923 44.2769 38.1281C44.2769 38.0086 44.3185 37.9015 44.378 37.8747C44.4087 37.8604 44.4683 37.8551 44.5532 37.8551C44.6362 37.8551 44.7464 37.8622 44.8764 37.8765C45.4885 37.9461 46.0861 37.98 46.6675 37.98C47.1442 37.98 47.6082 37.9568 48.0614 37.9086C48.0885 37.9068 48.1156 37.9051 48.1408 37.9051C48.3467 37.9051 48.4514 37.9961 48.4514 38.1781Z" fill="#FEF6F3"/>
<path fill-rule="evenodd" clip-rule="evenodd" d="M53.2189 39.1951C53.2189 39.4664 53.1178 39.7091 52.9083 39.9428C52.7025 40.1659 52.466 40.2819 52.2186 40.2819C51.9297 40.2819 51.695 40.2016 51.5163 40.0392C51.3357 39.875 51.2454 39.6627 51.2454 39.4039C51.2454 39.1452 51.3592 38.9043 51.5813 38.6919C51.7997 38.4725 52.0363 38.3618 52.2908 38.3618C52.9083 38.3618 53.2189 38.6384 53.2189 39.1951ZM54.2282 49.0381C54.1957 49.2273 54.1036 49.3272 53.9592 49.3272C53.8924 49.3272 53.7642 49.3218 53.5728 49.3076C53.2117 49.2826 52.8469 49.2701 52.4786 49.2701C51.9622 49.2701 51.4386 49.2951 50.9078 49.3415C50.8193 49.3522 50.7435 49.3575 50.6803 49.3575C50.4365 49.3575 50.3715 49.2897 50.3715 49.0381C50.3715 48.9061 50.5358 48.7936 50.8536 48.708C51.2057 48.6116 51.3808 48.2922 51.3808 47.7497C51.3808 46.431 51.3808 46.7612 51.3808 45.4442C51.3808 44.9946 51.3321 44.6787 51.2346 44.4985C51.0956 44.2398 50.8157 44.0435 50.4076 43.915C50.2199 43.8561 50.126 43.7615 50.126 43.633C50.126 43.4617 50.265 43.3333 50.5358 43.2547C51.0468 43.1084 51.4964 42.9068 51.8882 42.6534C52.2132 42.4428 52.401 42.3429 52.475 42.3429C52.7097 42.3429 52.8271 42.4821 52.8271 42.7622C52.8271 42.7729 52.8271 42.7837 52.8271 42.7944C52.8036 44.2326 52.791 45.6923 52.791 47.1751C52.791 47.2626 52.791 47.35 52.791 47.4375C52.791 47.4428 52.791 47.4482 52.791 47.4517C52.791 47.8193 52.8488 48.0834 52.9625 48.2476C53.0871 48.4243 53.3236 48.5492 53.6901 48.6295C54.0494 48.708 54.2318 48.8311 54.2318 48.9935C54.2318 49.0078 54.23 49.022 54.2282 49.0381Z" fill="#FEF6F3"/>
<path fill-rule="evenodd" clip-rule="evenodd" d="M59.6664 49.0024C59.6664 49.2112 59.5599 49.3111 59.3396 49.3111C59.3143 49.3111 59.2854 49.3094 59.2565 49.3076C58.9045 49.2737 58.5145 49.2576 58.0811 49.2576C57.5142 49.2576 56.8732 49.2862 56.1474 49.3415C56.0517 49.3522 55.9686 49.3575 55.8982 49.3575C55.7953 49.3575 55.7249 49.3468 55.6924 49.3254C55.631 49.2915 55.6003 49.1987 55.6003 49.0488C55.6003 48.8989 55.7538 48.7883 56.1004 48.6884C56.2485 48.6455 56.364 48.5635 56.4453 48.4421C56.5428 48.2958 56.5915 48.0906 56.5915 47.8283V39.9607C56.5915 39.4967 56.5211 39.147 56.3839 38.9257C56.2376 38.708 55.9813 38.5349 55.6274 38.4136C55.4432 38.3547 55.3457 38.2601 55.3457 38.1441C55.3457 37.9693 55.4829 37.839 55.7556 37.7516C56.1853 37.6159 56.6114 37.4179 57.0375 37.1609C57.4004 36.9521 57.6297 36.8486 57.729 36.8486C57.9529 36.8486 58.0649 36.9932 58.0649 37.2858C58.045 37.7855 58.0504 37.6606 58.0306 38.1602C58.0161 38.576 58.0089 38.9846 58.0107 39.3897L58.045 47.6213C58.0468 47.9746 58.1371 48.228 58.3195 48.3939C58.5 48.551 58.8124 48.6545 59.2565 48.708C59.5256 48.733 59.6664 48.8347 59.6664 49.0024Z" fill="#FEF6F3"/>
<path fill-rule="evenodd" clip-rule="evenodd" d="M64.9789 49.0024C64.9789 49.2112 64.8706 49.3111 64.6503 49.3111C64.625 49.3111 64.5979 49.3094 64.569 49.3076C64.2169 49.2737 63.8251 49.2576 63.3918 49.2576C62.8267 49.2576 62.1857 49.2862 61.4581 49.3415C61.3642 49.3522 61.2811 49.3575 61.2107 49.3575C61.1078 49.3575 61.0374 49.3468 61.0031 49.3254C60.9435 49.2915 60.9128 49.1987 60.9128 49.0488C60.9128 48.8989 61.0645 48.7883 61.4129 48.6884C61.561 48.6455 61.6765 48.5635 61.7578 48.4421C61.8553 48.2958 61.904 48.0906 61.904 47.8283V39.9607C61.904 39.4967 61.8336 39.147 61.6946 38.9257C61.5483 38.708 61.2938 38.5349 60.9399 38.4136C60.7557 38.3547 60.6582 38.2601 60.6582 38.1441C60.6582 37.9693 60.7936 37.839 61.0681 37.7516C61.4978 37.6159 61.9239 37.4179 62.35 37.1609C62.7111 36.9521 62.9422 36.8486 63.0415 36.8486C63.2654 36.8486 63.3774 36.9932 63.3774 37.2858C63.3557 37.7855 63.3611 37.6606 63.3431 38.1602C63.3268 38.576 63.3196 38.9846 63.3214 39.3897L63.3575 47.6213C63.3575 47.9746 63.4478 48.228 63.632 48.3939C63.8125 48.551 64.1249 48.6545 64.569 48.708C64.8363 48.733 64.9789 48.8347 64.9789 49.0024Z" fill="#FEF6F3"/>
</g>
<defs>
<clipPath id="clip0_226_699">
<rect width="65" height="50" fill="white"/>
</clipPath>
</defs>
</svg>
