<svg width="15" height="15" viewBox="0 0 15 15" fill="none" xmlns="http://www.w3.org/2000/svg">
<path d="M4.1375 6.74375C5.0375 8.5125 6.4875 9.9625 8.25625 10.8625L9.63125 9.4875C9.80625 9.3125 10.05 9.2625 10.2688 9.33125C10.9688 9.5625 11.7188 9.6875 12.5 9.6875C12.6658 9.6875 12.8247 9.75335 12.9419 9.87056C13.0592 9.98777 13.125 10.1467 13.125 10.3125V12.5C13.125 12.6658 13.0592 12.8247 12.9419 12.9419C12.8247 13.0592 12.6658 13.125 12.5 13.125C9.68207 13.125 6.97956 12.0056 4.98699 10.013C2.99442 8.02044 1.875 5.31793 1.875 2.5C1.875 2.33424 1.94085 2.17527 2.05806 2.05806C2.17527 1.94085 2.33424 1.875 2.5 1.875H4.6875C4.85326 1.875 5.01223 1.94085 5.12944 2.05806C5.24665 2.17527 5.3125 2.33424 5.3125 2.5C5.3125 3.28125 5.4375 4.03125 5.66875 4.73125C5.7375 4.95 5.6875 5.19375 5.5125 5.36875L4.1375 6.74375Z" fill="#FEF6F3"/>
</svg>
