<svg width="15" height="15" viewBox="0 0 15 15" fill="none" xmlns="http://www.w3.org/2000/svg">
<path d="M1.25 1.875H13.75C14.4062 1.875 15 2.46875 15 3.125V11.875C15 12.5312 14.4062 13.125 13.75 13.125H1.25C0.59375 13.125 0 12.5312 0 11.875V3.125C0 2.46875 0.59375 1.875 1.25 1.875ZM8.75 3.75V4.375H13.75V3.75H8.75ZM8.75 5V5.625H13.75V5H8.75ZM8.75 6.25V6.875H13.125V6.25H8.75ZM5 8.69375C3.75 8.69375 1.25 9.375 1.25 10.625V11.25H8.75V10.625C8.75 9.375 6.25 8.69375 5 8.69375ZM5 3.75C4.50272 3.75 4.02581 3.94754 3.67417 4.29917C3.32254 4.65081 3.125 5.12772 3.125 5.625C3.125 6.12228 3.32254 6.59919 3.67417 6.95083C4.02581 7.30246 4.50272 7.5 5 7.5C5.49728 7.5 5.97419 7.30246 6.32583 6.95083C6.67746 6.59919 6.875 6.12228 6.875 5.625C6.875 5.12772 6.67746 4.65081 6.32583 4.29917C5.97419 3.94754 5.49728 3.75 5 3.75Z" fill="#FEF6F3"/>
</svg>
