<svg width="153" height="145" viewBox="0 0 153 145" fill="none" xmlns="http://www.w3.org/2000/svg">
<path fill-rule="evenodd" clip-rule="evenodd" d="M17.8712 76.5455H17.8669C25.5919 74.4373 25.0009 74.6119 26.2253 74.0753C28.5126 73.0787 29.5967 71.5455 29.6435 69.2499C29.6733 67.704 29.7158 68.0234 29.0781 64.7483C28.9463 64.0711 29.0313 63.7772 29.3587 63.7815C29.6478 63.7815 28.8782 61.1154 34.741 82.4398C34.9408 83.2618 34.9196 83.4109 34.588 83.4194C34.1926 83.4322 34.1883 83.4194 33.4698 81.2686C32.3729 77.9893 30.6128 76.2346 28.2108 76.0302C26.5442 75.8854 26.608 75.8768 22.9687 76.9118C20.7027 77.5037 21.2681 77.3547 19.0021 77.9509C17.5098 78.347 17.8839 78.2022 16.3704 78.956C15.3968 79.4416 11.0178 80.6681 10.2271 80.6767C9.28324 80.6639 8.72629 80.0165 8.95587 79.186C9.14719 78.6026 9.3215 78.4918 10.6947 78.0957C13.556 77.2695 15.4989 76.7925 15.941 76.8095C16.9359 76.8564 16.6595 76.8947 17.8712 76.5455Z" fill="#FEF6F3"/>
<path fill-rule="evenodd" clip-rule="evenodd" d="M34.8491 60.7451H34.8448L40.9117 83.1386H36.031C32.8891 71.6523 33.6757 74.5228 30.5381 63.0364L34.7981 60.562C34.8278 60.6642 34.8193 60.6387 34.8491 60.7451Z" fill="#FEF6F3"/>
<path fill-rule="evenodd" clip-rule="evenodd" d="M63.3579 66.806L63.3664 66.8102C56.8872 65.49 53.6816 65.2174 47.9973 65.4985C46.1692 65.5879 42.1218 66.2097 39.605 66.7804C38.98 66.921 39.1373 66.8869 38.5123 67.0274C38.0489 65.6092 38.1637 65.9627 37.6961 64.5445L41.4416 63.5138C44.4644 62.9431 45.0851 62.875 49.4428 62.6706C50.6205 62.6152 51.305 62.4704 51.2625 62.283C51.1562 61.8188 48.4693 61.6697 44.1115 61.8827C42.3301 61.9721 41.9645 62.036 37.9256 62.9815C37.4877 63.0837 37.2922 62.9985 37.2837 62.7004C37.2667 61.9891 37.3814 61.8912 38.6951 61.4823C44.847 59.5701 52.1723 59.4082 60.8708 60.9968C64.6631 61.691 63.8681 61.5207 66.4317 62.1723L70.7342 63.2668L76.142 64.9448L78.2082 65.7924C80.1214 66.576 78.8502 66.1373 87.1108 68.8758C89.1388 69.5487 88.535 69.3741 91.3453 70.1152C92.4974 70.4559 92.2083 70.3707 93.3605 70.7029C95.0483 71.1884 100.065 72.2276 101.404 72.3681L104.737 72.8068C108.066 73.2412 112.173 73.4073 116.114 73.2583C118.504 73.1688 123.108 72.2744 125.408 71.4567C129.128 70.1322 131.594 68.8247 134.072 66.8699C134.782 66.3119 135.497 65.6731 136.581 64.6254C137.027 64.1953 136.985 64.2251 137.112 64.2677C137.168 64.289 137.146 64.3869 136.976 64.8724C136.347 66.4695 133.911 70.1578 132.351 71.8869C129.808 74.6935 128.316 75.886 124.936 77.8111C121.82 79.587 119.839 80.3323 115.944 81.1884L112.505 81.9465C111.463 82.1296 112.016 82.0742 108.636 82.3127C104.499 82.6066 102.114 82.5938 96.3025 82.2531L88.314 81.5163C86.4773 81.2395 86.9365 81.3076 85.1041 81.0351C83.6033 80.9116 84.2156 80.9925 80.7974 80.4644L72.7791 79.225L70.0454 78.8715C67.8772 78.5904 68.3491 78.6415 66.7378 78.501L62.3886 77.9644C58.7918 77.5214 51.4793 77.4874 49.3621 77.9047C48.6818 78.0368 48.9327 77.9942 47.6105 78.1901C46.4541 78.3605 45.9524 78.5138 42.9934 79.6211L42.0368 79.9788L41.314 77.432C42.8701 76.6441 42.4109 76.8272 44.5154 76.1586C47.9846 75.0513 51.5516 74.7318 58.1796 74.9363C60.8283 75.0172 65.896 75.7114 70.8872 76.6739C78.6929 78.1773 76.7415 77.7983 84.5429 79.3187C88.7221 79.8937 90.6565 80.0768 91.3155 79.9576C91.4813 79.9363 91.4813 79.9277 91.2815 79.8298C91.205 79.7957 91.2432 79.8213 91.0179 79.6552C90.8053 79.5274 91.5876 79.685 85.542 78.5564C79.1181 77.0317 80.7251 77.4065 74.2969 75.9116C67.35 74.2974 65.947 74.0376 60.9473 73.4456C57.0317 72.9857 55.7648 72.9175 52.4274 72.9899C49.9233 73.0453 47.2788 73.4201 44.4559 74.1143C42.9126 74.5785 43.2995 74.4635 41.7562 74.9235C41.1397 75.1066 41.2928 75.0598 40.6806 75.2387C39.741 71.708 39.9748 72.5896 39.0395 69.059L42.9976 68.2412C45.7016 67.6791 51.8959 67.2745 54.6509 67.4789L56.9127 67.5257L59.9865 67.7898C62.0484 67.9687 61.4107 67.8792 64.4292 68.4159C68.4171 69.1271 67.418 68.9482 71.4059 69.6595C70.8957 69.1015 71.0318 69.2038 70.4536 68.9397C69.497 68.5351 64.7269 67.0956 63.4769 66.8315C63.4089 66.8145 63.4259 66.8188 63.3579 66.806ZM86.2605 71.6484C85.9969 71.6612 85.8821 71.823 85.6355 72.5172C85.5505 72.7514 85.1084 73.2668 84.883 73.3988C83.7734 74.0163 83.9137 73.9312 83.901 73.9823L83.9137 73.9397C83.9052 73.9695 83.918 73.9951 83.9605 74.0206C84.173 74.1484 84.1433 74.1313 84.173 74.1569C84.3729 74.3315 84.2921 74.2804 84.73 74.5232L86.303 76.3758C86.3881 76.1927 86.4433 76.0862 86.5326 75.9073C87.0853 74.8298 86.9578 75.0044 87.4339 74.6807C88.6201 73.9056 88.4755 74.0163 88.467 73.9312C88.4585 73.846 88.2502 73.6671 88.0291 73.5606C87.1448 73.1731 86.9918 73.024 86.6091 72.1467C86.3753 71.5675 86.4221 71.6399 86.2605 71.6484ZM106.621 77.5811C106.459 77.5214 106.544 77.4576 106.009 78.0155L105.486 78.5606C105.316 78.7736 105.324 78.8204 105.554 79.076L105.856 79.4167C106.055 79.6637 106.004 79.6041 106.204 79.8511C106.417 80.0725 106.553 80.1066 106.689 79.9746C107.229 79.4465 107.139 79.5274 107.322 79.3996C107.539 79.2506 107.488 79.2889 107.705 79.1441C107.905 78.9567 107.888 78.7736 107.645 78.5521C106.527 77.4618 106.672 77.5981 106.621 77.5811Z" fill="#FEF6F3"/>
<path fill-rule="evenodd" clip-rule="evenodd" d="M84.8006 49.9695L84.7836 49.9568L85.3405 49.9482L85.349 53.9218L81.3994 53.909L81.4207 49.9951L84.8006 49.9695Z" fill="#FEF6F3"/>
<path fill-rule="evenodd" clip-rule="evenodd" d="M82.3777 44.876L82.4117 44.8718C84.1038 44.842 83.6829 44.8505 85.375 44.8164L85.3325 48.7517C83.0707 48.7261 83.6361 48.7304 81.3744 48.7091L81.3701 44.8931L82.3777 44.876Z" fill="#FEF6F3"/>
<path fill-rule="evenodd" clip-rule="evenodd" d="M90.1647 49.9868L90.186 49.9911C90.4368 49.9953 90.373 49.9953 90.6239 49.9953C90.5303 52.2653 90.5516 51.6989 90.458 53.9732L86.585 53.8497L86.6657 49.9868H90.1647Z" fill="#FEF6F3"/>
<path fill-rule="evenodd" clip-rule="evenodd" d="M90.5108 44.8662C90.5236 47.0723 90.5194 46.5187 90.5321 48.7248C88.2576 48.7163 88.8273 48.7205 86.5527 48.7163L86.7483 44.8662C88.7422 44.8662 88.2448 44.8662 90.2345 44.8662H90.5108Z" fill="#FEF6F3"/>
<path fill-rule="evenodd" clip-rule="evenodd" d="M137.142 53.969L137.146 53.9562C137.189 53.8711 137.24 53.8625 137.303 53.9307C137.499 54.1266 137.503 54.2331 137.397 55.4937C137.265 56.9929 136.309 60.0806 135.548 61.4392C134.051 64.1223 132.763 65.4979 130.599 66.7202L129.698 67.3037C127.899 68.4664 124.766 69.4247 121.637 69.7696C120.838 69.8591 120.991 69.8378 120.561 69.9017C120.034 69.9826 119.439 69.9102 119.333 69.7569C119.273 69.6759 119.388 69.578 119.702 69.4332L120.859 69.1138C122.258 68.7305 125.914 67.1972 127.011 66.5328C129.579 64.9783 130.374 64.3949 131.619 63.13C132.669 62.0652 134.017 60.4383 134.553 59.5865C135.773 57.6445 136.44 56.2007 137.129 54.0116L137.142 53.969Z" fill="#FEF6F3"/>
<path fill-rule="evenodd" clip-rule="evenodd" d="M118.637 20.6173H118.628C119.313 21.6266 119.534 21.9971 119.768 22.5423C119.891 22.7765 119.857 22.7169 119.98 22.9469C119.895 23.0363 120.189 23.377 117.91 20.5832C112.672 14.1522 105.661 8.93927 98.4678 6.1156C93.5999 4.2076 89.2421 3.19824 84.4125 2.86178C71.9939 1.99722 61.0379 5.28937 51.2298 12.8319C43.5601 18.7305 37.37 27.8404 34.7596 37.0823C32.8464 43.854 32.4341 49.2074 33.2376 56.8522C33.3991 58.428 33.4161 58.3343 32.9527 58.4663C32.2427 58.6708 30.963 58.4749 30.7675 58.1299C30.083 56.9076 29.6408 49.3991 30.0022 45.2168C30.5209 39.2756 31.673 34.6206 33.9561 29.2884C36.1243 24.2203 40.2397 18.2365 44.1001 14.527L47.0081 11.7374C51.9185 7.66159 56.085 5.25956 62.1986 2.98529C67.6489 0.958043 72.6954 0.0721861 78.9536 0.0338558C84.2807 0.0040433 89.9606 0.996373 95.0326 2.84475C98.3998 4.06706 100.849 5.20419 103.574 6.80555C109.649 10.3788 114.572 14.8933 118.637 20.6173Z" fill="#FEF6F3"/>
<path fill-rule="evenodd" clip-rule="evenodd" d="M114.201 48.1677L114.209 48.1635L121.067 55.2589C122.989 57.2478 122.797 57.0519 123.358 57.5928C123.626 57.8696 123.677 58.1805 123.486 58.3977C123.38 58.5169 124.294 58.4999 117.083 58.5255C109.937 58.551 111.127 58.8619 108.755 56.3449C108.028 55.672 108.211 55.8381 107.484 55.1652L81.2052 28.1082C79.5344 29.5477 80.8013 28.2786 72.3452 37.0221C64.633 44.9991 66.5674 43.0102 58.8042 50.936C57.3375 52.5289 57.7074 52.1328 56.2321 53.7129C55.148 54.8713 51.8489 58.1336 51.6235 58.2699C51.0666 58.5766 51.5045 58.5382 48.537 58.5382C37.8445 58.5255 38.8989 58.5553 38.7543 58.2614C38.58 57.9164 35.9654 60.672 57.0739 38.9514L81.1499 14.1772C90.129 23.368 87.8843 21.0682 96.8591 30.259C97.0589 30.3484 97.3268 30.3441 97.4586 30.2504C97.6244 30.1312 97.5946 30.7189 97.6414 26.1108L97.6541 24.8033C102.475 24.7777 101.272 24.7862 106.089 24.7607L106.204 28.5171L106.123 32.4097C106.123 35.408 106.127 34.6584 106.106 37.6567C106.085 40.1439 105.541 39.2751 109.907 43.7598C112.36 46.281 111.743 45.6507 114.201 48.1677Z" fill="#FEF6F3"/>
<path fill-rule="evenodd" clip-rule="evenodd" d="M119.441 43.3598H119.445C119.556 43.5259 119.505 43.4066 119.798 44.1903C120.066 44.8589 120.529 45.1741 121.75 45.5148C121.864 45.5531 121.915 45.617 121.873 45.6851C121.843 45.7362 121.945 45.7022 121.184 45.9449C120.262 46.2388 119.947 46.5625 119.56 47.5931C119.458 47.8614 119.267 48.1255 119.207 48.0829C119.118 47.772 119.139 47.8487 119.05 47.5378C118.74 46.6136 118.221 46.1494 117.162 45.8342C116.996 45.7831 116.941 45.7192 116.954 45.6085C116.971 45.502 116.911 45.5318 117.358 45.387C118.387 45.0207 118.905 44.416 119.143 43.3299C119.169 43.2277 119.186 43.1937 119.216 43.1809C119.267 43.1553 119.326 43.2022 119.441 43.3598Z" fill="#FEF6F3"/>
<path fill-rule="evenodd" clip-rule="evenodd" d="M127.165 22.2571C127.535 24.1992 128.147 25.2639 129.155 25.7153L130.686 26.2136C131.043 26.3286 131.43 26.5203 131.421 26.5799C131.417 26.614 131.612 26.5586 130.073 26.9632C128.335 27.4189 127.582 28.3559 127.195 30.5407C127.144 30.8516 127.08 30.9325 126.932 30.8644C126.851 30.826 126.876 30.9027 126.77 30.332C126.591 29.4547 126.018 28.16 125.673 27.8363C125.006 27.2145 124.763 27.1123 122.876 26.6693C122.782 26.6438 122.74 26.6055 122.748 26.5543C122.778 26.367 122.85 26.3371 124.126 25.9751C125.605 25.562 126.315 24.7187 126.757 22.8576C126.796 22.7 126.817 22.5467 126.838 22.2571C126.851 22.1506 126.898 22.0867 126.974 22.074C127.072 22.0612 127.14 22.1208 127.165 22.2571Z" fill="#FEF6F3"/>
<path fill-rule="evenodd" clip-rule="evenodd" d="M131.463 36.7034V36.7077C131.535 36.597 131.569 36.5799 131.612 36.631L131.744 37.2827C132.05 38.735 132.857 39.5101 134.439 39.855C134.609 39.9019 134.639 39.9487 134.575 40.0637C134.52 40.1659 134.669 40.1021 133.542 40.5237C132.53 40.8985 131.901 41.6438 131.722 42.6745C131.625 43.3431 131.646 43.2579 131.569 43.2622C131.484 43.2622 131.34 43.0876 131.246 42.8661L130.94 41.9973C130.647 41.1498 130.103 40.6855 129.04 40.3661C128.649 40.2469 128.325 40.1659 127.926 40.0808L129.988 39.2162C130.668 38.7946 130.723 38.7009 131.267 37.0825C131.323 36.9334 131.301 36.976 131.463 36.7034Z" fill="#FEF6F3"/>
<path fill-rule="evenodd" clip-rule="evenodd" d="M12.7607 138.947L15.1798 122.921H17.8497C20.6174 122.921 22.0034 124.641 22.0034 128.078C22.0034 128.871 21.9311 129.756 21.7823 130.732C21.4125 133.202 20.6387 135.187 19.461 136.69C18.2876 138.193 16.9102 138.947 15.3244 138.947H12.7607ZM16.0556 124.616L14.151 137.248H15.5965C16.8634 137.248 17.9305 136.686 18.8106 135.557C19.6864 134.433 20.2773 132.844 20.5877 130.774C20.7067 129.995 20.7662 129.288 20.7662 128.653C20.7662 125.962 19.6991 124.616 17.5649 124.616H16.0556Z" fill="#FEF6F3"/>
<path fill-rule="evenodd" clip-rule="evenodd" d="M28.6427 133.684H23.7705C23.7025 134.165 23.6727 134.604 23.6727 134.996C23.6727 136.137 23.9533 136.963 24.4762 137.372C24.7356 137.572 25.0459 137.67 25.4201 137.67C26.1938 137.67 26.9718 137.249 27.7541 136.397L27.4948 138.117C26.7805 138.846 25.9217 139.212 24.9226 139.212C23.9448 139.212 23.2603 138.701 22.8607 137.662C22.6226 137.053 22.5078 136.303 22.5078 135.404C22.5078 134.766 22.5673 134.054 22.6864 133.266C22.9542 131.486 23.4771 130.034 24.2552 128.914C25.0332 127.794 25.8707 127.236 26.772 127.236C27.6861 127.236 28.3111 127.717 28.6554 128.688C28.8552 129.246 28.953 129.927 28.953 130.728C28.953 131.324 28.8978 131.989 28.7915 132.721L28.6427 133.684ZM27.7456 132.129C27.8094 131.678 27.8434 131.269 27.8434 130.907C27.8434 130.013 27.6393 129.357 27.2567 129.029C27.0569 128.858 26.8145 128.778 26.5254 128.778C26.0068 128.778 25.5136 129.088 25.0587 129.702C24.6038 130.311 24.2552 131.124 24.0171 132.129H27.7456Z" fill="#FEF6F3"/>
<path fill-rule="evenodd" clip-rule="evenodd" d="M29.165 138.531L29.4626 136.567C29.9516 137.3 30.5638 137.67 31.2865 137.67C32.2559 137.67 32.8255 137.134 32.9871 136.065C33.0084 135.916 33.0169 135.784 33.0169 135.656C33.0169 135.524 33.0041 135.4 32.9786 135.289C32.8681 134.859 32.6512 134.54 32.2941 134.284C32.1368 134.165 31.9625 134.033 31.7372 133.871C31.0952 133.403 30.7551 133.032 30.551 132.577C30.398 132.236 30.3172 131.823 30.3172 131.363C30.3172 131.116 30.3427 130.839 30.3852 130.541C30.466 130.008 30.6105 129.536 30.8231 129.123C31.227 128.326 31.8094 127.751 32.5194 127.445C32.8511 127.304 33.1827 127.236 33.527 127.236C34.135 127.236 34.6409 127.406 35.0576 127.747L34.777 129.604C34.3518 129.054 33.8034 128.778 33.1487 128.778C32.7575 128.778 32.3536 128.948 32.0943 129.225C31.9455 129.374 31.8265 129.544 31.7414 129.736C31.5926 130.03 31.5033 130.439 31.5033 130.835C31.5033 130.945 31.5118 131.043 31.5289 131.133C31.5629 131.337 31.6266 131.516 31.7329 131.669C31.8775 131.891 31.9497 131.959 32.2856 132.215C32.4769 132.364 32.5705 132.432 32.6767 132.508C32.9531 132.7 33.1997 132.9 33.4123 133.113C33.8459 133.522 34.1095 134.059 34.1903 134.689C34.203 134.808 34.2115 134.94 34.2115 135.077C34.2115 135.324 34.1903 135.596 34.1435 135.886C34.0585 136.452 33.9097 136.942 33.6971 137.355C33.2635 138.186 32.681 138.748 31.9753 139.016C31.6224 139.148 31.2695 139.216 30.9124 139.216C30.1981 139.216 29.6114 138.986 29.165 138.531Z" fill="#FEF6F3"/>
<path fill-rule="evenodd" clip-rule="evenodd" d="M38.1126 124.595C37.917 124.595 37.764 124.484 37.6577 124.258C37.5854 124.113 37.5514 123.939 37.5514 123.734C37.5514 123.636 37.5599 123.526 37.5769 123.411C37.6279 123.061 37.7385 122.78 37.9128 122.559C38.0871 122.329 38.2742 122.214 38.4655 122.214C38.678 122.214 38.8311 122.329 38.9374 122.563C39.0097 122.708 39.0437 122.883 39.0437 123.087C39.0437 123.185 39.0352 123.296 39.0182 123.411C38.9714 123.734 38.8609 124.015 38.6823 124.25C38.508 124.48 38.3167 124.595 38.1126 124.595ZM36.4885 138.947H35.3789L37.1093 127.499H38.2146L36.4885 138.947Z" fill="#FEF6F3"/>
<path fill-rule="evenodd" clip-rule="evenodd" d="M44.7596 138.028C44.1261 142.232 42.5956 144.331 40.168 144.331C39.3135 144.331 38.612 144.067 38.0508 143.526L38.3271 141.695C38.9946 142.41 39.6833 142.768 40.3891 142.768C42.0897 142.768 43.1653 141.269 43.6159 138.275L43.8073 137.023H43.7775C43.0335 138.488 42.1364 139.216 41.0736 139.216C40.2148 139.216 39.5983 138.705 39.2327 137.696C39.0116 137.095 38.9053 136.371 38.9053 135.528C38.9053 134.94 38.9563 134.293 39.0626 133.594C39.356 131.648 39.8704 130.102 40.6102 128.952C41.3414 127.807 42.2045 127.236 43.1866 127.236C44.1176 127.236 44.7128 127.849 44.9764 129.088H45.0019L45.2443 127.5H46.3496L44.7596 138.028ZM44.5513 132.082C44.598 131.776 44.6193 131.486 44.6193 131.209C44.6193 130.26 44.3259 129.425 43.8583 129.037C43.6457 128.863 43.3949 128.778 43.1058 128.778C42.4255 128.778 41.8218 129.191 41.3117 130.013C40.8057 130.83 40.4401 131.985 40.2148 133.471C40.134 134.012 40.0915 134.506 40.0915 134.957C40.0915 136.073 40.3508 136.946 40.8057 137.368C41.0268 137.572 41.2946 137.67 41.6093 137.67C42.23 137.67 42.7912 137.304 43.2928 136.571C43.7903 135.847 44.1261 134.906 44.2962 133.773L44.5513 132.082Z" fill="#FEF6F3"/>
<path fill-rule="evenodd" clip-rule="evenodd" d="M52.5946 138.948H51.485L52.4713 132.419C52.5648 131.801 52.6116 131.261 52.6116 130.796C52.6116 129.45 52.212 128.778 51.4169 128.778C50.86 128.778 50.3541 129.118 49.8864 129.808C49.423 130.498 49.1084 131.367 48.9511 132.419L47.9648 138.948H46.8594L48.5855 127.5H49.6908L49.406 129.404H49.4315C50.1713 127.96 51.0343 127.236 52.0249 127.236C52.7859 127.236 53.3046 127.64 53.5767 128.45C53.7297 128.893 53.802 129.446 53.802 130.102C53.802 130.647 53.751 131.261 53.649 131.95L52.5946 138.948Z" fill="#FEF6F3"/>
<path fill-rule="evenodd" clip-rule="evenodd" d="M67.0478 139.204C66.7927 139.204 66.5759 139.148 66.4015 139.037C66.0317 138.782 65.8191 138.45 65.5683 137.76C65.4365 137.402 65.3259 137.061 65.2324 136.721C65.0028 137.044 64.7562 137.347 64.4714 137.649C64.2035 137.934 63.9102 138.194 63.5616 138.445C63.247 138.671 62.9153 138.85 62.5327 138.995C62.1713 139.135 61.7887 139.204 61.3891 139.204C60.4155 139.204 59.6502 138.79 59.1953 138.02C58.97 137.632 58.8169 137.146 58.7489 136.567C58.7149 136.337 58.7021 136.094 58.7021 135.835C58.7021 135.451 58.7362 135.034 58.8042 134.587C58.9742 133.45 59.3144 132.474 59.8288 131.669C60.3432 130.856 60.9979 130.192 61.7887 129.681C61.4996 129.242 61.321 128.825 61.2275 128.365C61.1467 128.024 61.1042 127.632 61.1042 127.219C61.1042 126.418 61.2955 125.477 61.6101 124.753C62.0013 123.846 62.5412 123.215 63.2087 122.888C63.5361 122.73 63.8719 122.653 64.2248 122.653C64.5989 122.653 64.905 122.73 65.1644 122.896C65.8063 123.267 66.1677 124.097 66.1677 125.192C66.1677 125.464 66.1465 125.75 66.0997 126.048C65.9636 126.938 65.6958 127.687 65.3004 128.279C64.9008 128.876 64.3651 129.378 63.6891 129.791C63.9697 129.996 64.212 130.238 64.4204 130.532C64.6244 130.822 64.8115 131.146 64.9731 131.503C65.1474 131.908 65.2877 132.283 65.3939 132.653C65.513 133.066 65.632 133.492 65.7468 133.927C66.7119 132.283 67.4049 130.221 67.745 127.96C67.8343 127.381 67.8555 127.104 67.864 126.418H68.9354C68.9312 126.721 68.9227 126.929 68.8972 127.121L68.7994 127.905C68.6973 128.586 68.5528 129.267 68.3615 129.949C67.8045 131.955 67.069 133.709 66.0954 135.383C66.172 135.66 66.2527 135.916 66.3845 136.32C66.5716 136.857 66.7884 137.21 67.035 137.381C67.1711 137.466 67.3199 137.504 67.4942 137.504C67.7238 137.504 67.9831 137.415 68.3827 137.193L68.1276 138.888C67.7663 139.097 67.4006 139.204 67.0648 139.204C67.0605 139.204 67.0563 139.204 67.0478 139.204ZM61.6314 137.615C62.2734 137.615 62.8431 137.406 63.4723 136.946C63.7614 136.721 64.0165 136.482 64.2375 136.227C64.5181 135.899 64.7265 135.635 64.9093 135.37C64.7392 134.668 64.5777 134.063 64.4289 133.56C63.9272 131.993 63.4638 131.282 62.4902 130.588C61.7419 131.039 61.2445 131.482 60.8746 132.019C60.6578 132.317 60.4665 132.675 60.3049 133.092C60.0456 133.744 59.8713 134.668 59.8713 135.358C59.8713 135.945 59.9946 136.474 60.2242 136.844C60.5345 137.355 61.0107 137.615 61.6314 137.615ZM65.0368 126.205C65.0708 125.992 65.0878 125.792 65.0878 125.618C65.0878 125.486 65.0751 125.362 65.0581 125.256C65.0071 124.97 64.9348 124.761 64.8413 124.608C64.6542 124.302 64.3481 124.123 64.0165 124.118C63.5786 124.118 63.2002 124.314 62.8771 124.706C62.554 125.098 62.3371 125.635 62.2309 126.32C62.1968 126.542 62.1798 126.75 62.1798 126.946C62.1798 127.027 62.1798 127.104 62.1883 127.176C62.2139 127.683 62.3542 128.186 62.5667 128.543C62.6858 128.735 62.8048 128.884 62.9281 128.999C63.5446 128.675 64.025 128.296 64.3693 127.858C64.7137 127.423 64.939 126.865 65.0368 126.205Z" fill="#FEF6F3"/>
<path fill-rule="evenodd" clip-rule="evenodd" d="M80.3804 138.947H79.0327L78.0931 134.45C77.8125 133.121 77.5192 132.478 77.094 132.261C76.941 132.176 76.7497 132.129 76.5414 132.129H75.6103L74.5814 138.947H73.4463L75.8654 122.921H78.7521C79.1773 122.921 79.5556 123.006 79.8873 123.176C80.559 123.526 80.9756 124.262 81.1074 125.323C81.1329 125.527 81.1457 125.745 81.1457 125.979C81.1457 126.86 80.9586 127.921 80.661 128.726C80.3252 129.646 79.832 130.395 79.2325 130.911C78.9434 131.153 78.6203 131.349 78.2504 131.503L78.2462 131.545C78.6331 131.873 78.8499 132.308 79.0752 133.215C79.1603 133.551 79.2325 133.841 79.2963 134.126L80.3804 138.947ZM76.7412 124.616L75.8654 130.429C76.7497 130.429 76.5286 130.429 77.4129 130.429C77.9613 130.429 78.4885 130.148 78.9349 129.612C79.3898 129.045 79.6959 128.27 79.8362 127.346C79.8788 127.061 79.9 126.801 79.9 126.558C79.9 125.74 79.6492 125.144 79.1815 124.846C78.9434 124.697 78.6458 124.62 78.293 124.62L76.7412 124.616Z" fill="#FEF6F3"/>
<path fill-rule="evenodd" clip-rule="evenodd" d="M87.9028 133.684H83.0264C82.9626 134.165 82.9286 134.604 82.9286 134.996C82.9286 136.137 83.2092 136.963 83.7364 137.372C83.9914 137.572 84.306 137.67 84.6759 137.67C85.4539 137.67 86.232 137.249 87.0142 136.397L86.7549 138.117C86.0364 138.846 85.1776 139.212 84.1827 139.212C83.2007 139.212 82.5162 138.701 82.1165 137.662C81.8827 137.053 81.7637 136.303 81.7637 135.404C81.7637 134.766 81.8232 134.054 81.9422 133.266C82.2101 131.486 82.733 130.034 83.511 128.914C84.289 127.794 85.1308 127.236 86.0321 127.236C86.942 127.236 87.5669 127.717 87.9113 128.688C88.1111 129.246 88.2131 129.927 88.2131 130.728C88.2131 131.324 88.1579 131.989 88.0473 132.721L87.9028 133.684ZM87.0015 132.129C87.0695 131.678 87.0993 131.269 87.0993 130.907C87.0993 130.013 86.8952 129.357 86.5126 129.029C86.317 128.858 86.0704 128.778 85.7813 128.778C85.2626 128.778 84.7737 129.088 84.3145 129.702C83.8639 130.311 83.5153 131.124 83.2729 132.129H87.0015Z" fill="#FEF6F3"/>
<path fill-rule="evenodd" clip-rule="evenodd" d="M94.5135 138.948H93.4039L94.3903 132.419C94.4838 131.801 94.5306 131.261 94.5306 130.796C94.5306 129.45 94.1309 128.778 93.3359 128.778C92.7789 128.778 92.273 129.118 91.8054 129.808C91.342 130.498 91.0273 131.367 90.87 132.419L89.8837 138.948H88.7783L90.5044 127.5H91.6098L91.3249 129.404H91.3505C92.0902 127.96 92.9533 127.236 93.9438 127.236C94.7049 127.236 95.2235 127.64 95.4956 128.45C95.6487 128.893 95.721 129.446 95.721 130.102C95.721 130.647 95.6699 131.261 95.5679 131.95L94.5135 138.948Z" fill="#FEF6F3"/>
<path fill-rule="evenodd" clip-rule="evenodd" d="M99.4415 139.216C98.4254 139.216 97.6899 138.68 97.2435 137.615C96.9587 136.942 96.8184 136.133 96.8184 135.187C96.8184 134.625 96.8651 134.016 96.9672 133.356C97.2563 131.439 97.8005 129.936 98.5955 128.854C99.3947 127.772 100.33 127.236 101.406 127.236C102.443 127.236 103.166 127.76 103.587 128.812C103.838 129.442 103.961 130.213 103.961 131.133C103.961 131.75 103.906 132.432 103.791 133.181C103.519 135 102.983 136.461 102.196 137.564C101.406 138.663 100.487 139.216 99.4415 139.216ZM101.1 128.778C100.385 128.778 99.7604 129.178 99.2289 129.979C98.6975 130.779 98.3234 131.887 98.1108 133.292C98.0258 133.841 97.9875 134.34 97.9875 134.795C97.9875 135.988 98.2809 136.895 98.8123 137.347C99.0716 137.564 99.3862 137.67 99.7561 137.67C100.475 137.67 101.083 137.287 101.58 136.52C102.082 135.749 102.435 134.668 102.647 133.245C102.745 132.602 102.796 132.023 102.796 131.512C102.796 129.732 102.201 128.778 101.1 128.778Z" fill="#FEF6F3"/>
<path fill-rule="evenodd" clip-rule="evenodd" d="M111.842 127.5L107.366 138.948H106.281L105.389 127.5H106.605L107.102 135.817C107.119 136.137 107.132 136.426 107.132 136.695C107.132 136.954 107.123 137.193 107.102 137.414H107.132C107.276 136.792 107.425 136.286 107.582 135.86L110.677 127.5H111.842Z" fill="#FEF6F3"/>
<path fill-rule="evenodd" clip-rule="evenodd" d="M116.248 138.948H115.142L115.41 137.159H115.385C114.7 138.531 113.888 139.216 112.953 139.216C112.26 139.216 111.771 138.914 111.473 138.313C111.274 137.909 111.176 137.415 111.176 136.84C111.176 136.55 111.201 136.239 111.252 135.907C111.571 133.769 112.523 132.517 114.092 132.168L116.235 131.695C116.307 131.231 116.341 130.826 116.341 130.477C116.341 129.344 115.98 128.778 115.253 128.778C114.42 128.778 113.595 129.246 112.787 130.183L113.072 128.305C113.858 127.589 114.696 127.236 115.58 127.236C116.864 127.236 117.506 128.122 117.506 129.898C117.506 130.37 117.459 130.907 117.37 131.503L116.248 138.948ZM116.014 133.156L114.292 133.543C113.761 133.663 113.344 133.871 113.034 134.174C112.728 134.476 112.519 135 112.404 135.771C112.379 135.945 112.366 136.107 112.366 136.26C112.366 136.835 112.553 137.295 112.881 137.517C113.038 137.619 113.225 137.67 113.438 137.67C113.99 137.67 114.496 137.355 114.943 136.72C115.393 136.09 115.695 135.277 115.844 134.297L116.014 133.156Z" fill="#FEF6F3"/>
<path fill-rule="evenodd" clip-rule="evenodd" d="M121.554 138.833C121.252 139.071 120.89 139.19 120.465 139.19C119.521 139.19 119.049 138.509 119.049 137.138C119.049 136.759 119.083 136.324 119.16 135.839L120.18 129.067H118.994L119.228 127.5H120.414L120.835 124.706L122.034 124.114L121.519 127.5H123.263L123.025 129.067H121.286L120.312 135.515C120.253 135.915 120.223 136.252 120.223 136.533C120.223 137.027 120.312 137.325 120.516 137.495C120.644 137.598 120.805 137.649 121.009 137.649C121.29 137.649 121.549 137.521 121.787 137.27L121.554 138.833Z" fill="#FEF6F3"/>
<path fill-rule="evenodd" clip-rule="evenodd" d="M125.741 124.595C125.546 124.595 125.397 124.484 125.286 124.258C125.218 124.113 125.18 123.939 125.18 123.734C125.18 123.636 125.188 123.526 125.205 123.411C125.261 123.061 125.371 122.78 125.541 122.559C125.72 122.329 125.903 122.214 126.098 122.214C126.311 122.214 126.464 122.329 126.57 122.563C126.642 122.708 126.676 122.883 126.676 123.087C126.676 123.185 126.668 123.296 126.651 123.411C126.604 123.734 126.489 124.015 126.315 124.25C126.141 124.48 125.949 124.595 125.741 124.595ZM124.117 138.947H123.012L124.738 127.499H125.843L124.117 138.947Z" fill="#FEF6F3"/>
<path fill-rule="evenodd" clip-rule="evenodd" d="M129.201 139.216C128.185 139.216 127.45 138.68 127.003 137.615C126.718 136.942 126.578 136.133 126.578 135.187C126.578 134.625 126.629 134.016 126.727 133.356C127.016 131.439 127.56 129.936 128.359 128.854C129.155 127.772 130.09 127.236 131.165 127.236C132.203 127.236 132.926 127.76 133.346 128.812C133.597 129.442 133.721 130.213 133.721 131.133C133.721 131.75 133.665 132.432 133.551 133.181C133.278 135 132.743 136.461 131.956 137.564C131.165 138.663 130.247 139.216 129.201 139.216ZM130.859 128.778C130.149 128.778 129.52 129.178 128.989 129.979C128.457 130.779 128.083 131.887 127.871 133.292C127.786 133.841 127.747 134.34 127.747 134.795C127.747 135.988 128.041 136.895 128.572 137.347C128.831 137.564 129.146 137.67 129.516 137.67C130.234 137.67 130.842 137.287 131.34 136.52C131.841 135.749 132.194 134.668 132.407 133.245C132.505 132.602 132.556 132.023 132.556 131.512C132.556 129.732 131.96 128.778 130.859 128.778Z" fill="#FEF6F3"/>
<path fill-rule="evenodd" clip-rule="evenodd" d="M140.182 138.948H139.073L140.059 132.419C140.153 131.801 140.199 131.261 140.199 130.796C140.199 129.45 139.8 128.778 139.005 128.778C138.448 128.778 137.942 129.118 137.474 129.808C137.011 130.498 136.696 131.367 136.539 132.419L135.553 138.948H134.447L136.173 127.5H137.283L136.994 129.404H137.019C137.759 127.96 138.622 127.236 139.613 127.236C140.374 127.236 140.892 127.64 141.165 128.45C141.318 128.893 141.39 129.446 141.39 130.102C141.39 130.647 141.339 131.261 141.237 131.95L140.182 138.948Z" fill="#FEF6F3"/>
<path fill-rule="evenodd" clip-rule="evenodd" d="M20.8704 112.401C20.3858 114.156 20.1392 115.804 20.1392 117.35C20.1392 117.363 20.1392 117.372 20.1392 117.384C20.1392 117.614 19.8161 117.725 19.1316 117.725C19.0211 117.725 18.902 117.721 18.7702 117.717C16.3936 117.606 13.5494 117.55 10.3991 117.55C6.69606 117.55 3.57973 117.619 0.931071 117.759C0.837539 117.763 0.752509 117.768 0.671731 117.768C0.412392 117.768 0.242333 117.734 0.161556 117.674C0.055269 117.572 0.0127544 117.376 0.0127544 117.027C0.0127544 116.677 0.31886 116.469 0.931071 116.405C1.63681 116.337 2.164 116.115 2.51262 115.745C2.85698 115.383 3.02704 114.876 3.02704 114.228L3.03129 95.0761C3.03129 94.088 2.8995 93.3895 2.62741 92.9168C2.3128 92.3759 1.69633 91.9543 0.739755 91.6306C0.246585 91.4645 0 91.2004 0 90.8342C0 90.6553 0.0595205 90.4083 0.136047 90.2933C0.221076 90.1613 0.323111 90.1187 0.586702 90.1187C0.761012 90.1187 1.0161 90.14 1.40298 90.1783C2.38082 90.2848 3.45219 90.3359 4.60859 90.3359C5.90954 90.3359 7.32527 90.272 8.8558 90.14C9.29795 90.1016 9.51903 90.0889 9.63382 90.0889C10.0165 90.0889 10.2375 90.3572 10.2375 90.8299C10.2375 91.111 10.144 91.3027 9.94843 91.4219C9.85915 91.4858 9.56579 91.571 9.07263 91.6817C8.05227 91.9074 7.44006 92.1544 7.18498 92.4398C6.92989 92.7124 6.79809 93.3086 6.79809 94.2243V112.797C6.79809 113.956 7.20623 114.752 8.02251 115.182C8.80904 115.596 10.2843 115.809 12.41 115.809C14.4422 115.809 15.9472 115.557 16.9293 115.059C17.8944 114.539 18.6852 113.585 19.3059 112.197C19.4802 111.775 19.7183 111.567 20.0287 111.567C20.1307 111.567 20.237 111.588 20.356 111.635C20.7131 111.72 20.9002 111.907 20.9002 112.188C20.9002 112.257 20.8917 112.329 20.8704 112.401Z" fill="#FEF6F3"/>
<path fill-rule="evenodd" clip-rule="evenodd" d="M31.7925 93.5822C31.7925 94.2295 31.5544 94.8088 31.0613 95.3667C30.5766 95.899 30.0197 96.1759 29.4372 96.1759C28.757 96.1759 28.2043 95.9842 27.7834 95.5967C27.3582 95.2048 27.1457 94.698 27.1457 94.0805C27.1457 93.4629 27.4135 92.888 27.9364 92.3812C28.4509 91.8573 29.0078 91.5933 29.6073 91.5933C31.0613 91.5933 31.7925 92.2534 31.7925 93.5822ZM34.1691 117.074C34.0926 117.526 33.8757 117.764 33.5356 117.764C33.3783 117.764 33.0765 117.752 32.6258 117.718C31.7755 117.658 30.9167 117.628 30.0494 117.628C28.8335 117.628 27.6006 117.688 26.3506 117.798C26.1423 117.824 25.9638 117.837 25.815 117.837C25.241 117.837 25.088 117.675 25.088 117.074C25.088 116.759 25.4748 116.491 26.2231 116.287C27.0521 116.057 27.4645 115.294 27.4645 113.999C27.4645 110.852 27.4645 111.64 27.4645 108.497C27.4645 107.424 27.3497 106.67 27.1202 106.24C26.7928 105.622 26.1338 105.154 25.1772 104.847C24.7308 104.707 24.5098 104.481 24.5098 104.174C24.5098 103.765 24.8371 103.459 25.4748 103.271C26.678 102.922 27.7366 102.441 28.6592 101.836C29.4245 101.333 29.8666 101.095 30.0452 101.095C30.5936 101.095 30.87 101.427 30.87 102.096C30.87 102.121 30.87 102.147 30.87 102.172C30.8147 105.605 30.7849 109.089 30.7849 112.628C30.7849 112.837 30.7849 113.045 30.7849 113.254C30.7849 113.267 30.7849 113.28 30.7849 113.288C30.7849 114.166 30.921 114.796 31.1888 115.188C31.4822 115.609 32.0391 115.907 32.9064 116.099C33.7482 116.287 34.1776 116.58 34.1776 116.968C34.1776 117.002 34.1733 117.036 34.1691 117.074Z" fill="#FEF6F3"/>
<path fill-rule="evenodd" clip-rule="evenodd" d="M54.3002 114.314C54.1131 114.493 53.5009 115.907 52.2807 118.96C52.1702 119.233 51.9619 119.369 51.66 119.369C51.5707 119.369 51.4729 119.356 51.3667 119.335C51.018 119.267 50.8395 119.067 50.8395 118.739C50.8395 118.662 50.8522 118.577 50.8735 118.483C50.882 118.445 50.8862 118.411 50.8862 118.377C50.8862 118.057 50.5291 117.853 49.8234 117.763C48.2886 117.568 44.1519 117.465 37.7237 117.461C37.3368 117.461 37.1455 117.201 37.1455 116.677C37.1455 116.562 37.171 116.486 37.2305 116.452C41.0781 112.597 44.9257 108.743 48.7733 104.893C48.9433 104.701 49.0326 104.561 49.0326 104.476C49.0326 104.378 48.8966 104.331 48.6032 104.331C48.4544 104.331 46.503 104.369 42.7574 104.446C41.4012 104.471 40.3639 104.863 39.6921 105.596C39.0629 106.281 38.5953 106.614 38.2466 106.614C38.1999 106.614 38.1531 106.605 38.1106 106.592C37.813 106.499 37.6599 106.354 37.6599 106.166C37.6599 106.077 37.6939 105.975 37.7662 105.868C38.0213 105.485 38.608 104.114 39.8664 100.97C40.0195 100.63 40.2576 100.472 40.6147 100.472C41.0654 100.472 41.3417 100.617 41.4948 100.928C41.6393 101.273 42.2345 101.464 43.3356 101.52C45.3508 101.622 48.3779 101.694 52.9269 101.737H52.9354C53.1268 101.737 53.2926 101.848 53.4414 102.069C53.5944 102.278 53.6752 102.465 53.6794 102.631C53.6752 102.691 53.6582 102.734 53.6369 102.755L42.0645 114.101C41.8731 114.292 41.7754 114.437 41.7711 114.539C41.7924 114.684 42.0007 114.748 42.4556 114.744C44.8279 114.735 47.196 114.723 49.564 114.706C50.8267 114.663 51.8046 114.476 52.5443 114.126C53.233 113.803 53.6752 113.607 53.722 113.607C53.8368 113.607 53.943 113.632 54.0833 113.692C54.3342 113.769 54.4617 113.875 54.4617 114.011C54.4617 114.101 54.4065 114.199 54.3002 114.314Z" fill="#FEF6F3"/>
<path fill-rule="evenodd" clip-rule="evenodd" d="M114.087 91.1534C114.087 91.6262 113.645 91.9797 112.718 92.2522C111.728 92.5461 110.894 93.4958 110.223 95.1142C107.225 102.273 104.258 109.573 101.273 117.112C101.044 117.695 100.529 118.091 99.6959 118.317C99.6322 118.351 99.5981 118.359 99.5471 118.359C99.1432 118.359 98.8541 117.946 98.6713 117.116C98.0123 114.071 95.6018 107.98 91.5374 99.1006C89.739 103.496 87.3497 109.552 84.4417 117.12C84.2036 117.733 83.6467 118.138 82.7368 118.359C82.3287 118.359 82.0481 117.946 81.8908 117.116C81.3679 114.365 78.2898 106.903 72.5078 94.386C71.9211 93.1125 70.9008 92.3161 69.4808 92.0137C68.7878 91.8647 68.4307 91.656 68.4307 91.4047C68.4307 90.8723 68.6815 90.604 69.1832 90.604C69.2384 90.604 69.2937 90.6083 69.3532 90.6126C69.9739 90.6679 70.6372 90.6935 71.3472 90.6935C73.154 90.6935 75.2543 90.5189 77.6393 90.1781C77.9284 90.1356 78.1708 90.1143 78.3536 90.1143C78.6427 90.1143 78.7405 90.1526 78.817 90.2931C78.8808 90.4039 78.953 90.7105 78.953 90.8468C78.953 91.1066 78.5917 91.4175 77.8944 91.7497C76.9931 92.1798 76.5254 92.6994 76.5254 93.2701C76.5254 93.5214 76.5892 93.811 76.721 94.1432C78.1495 97.8144 80.4283 103.645 83.5531 111.635C83.6594 111.907 83.787 112.031 83.9613 112.031C84.1101 112.031 84.2334 111.899 84.3354 111.635L90.2747 96.3408C90.0366 95.8894 89.7135 95.2377 89.3053 94.3945C88.7994 93.3553 87.8939 92.5461 86.5887 91.9669C85.9807 91.6986 85.6661 91.4218 85.6661 91.162C85.6661 91.1449 85.6661 91.1279 85.6703 91.1109C85.7256 90.5615 85.985 90.2889 86.4399 90.2889C86.4994 90.2889 86.5674 90.2931 86.6354 90.3059C88.0427 90.5231 89.5519 90.6338 91.1547 90.6338C92.4217 90.6338 93.7481 90.5657 95.1341 90.4252C95.3594 90.4039 95.5508 90.3911 95.7123 90.3911C96.0992 90.3911 96.2522 90.4465 96.3245 90.6083C96.3755 90.719 96.401 90.8894 96.401 91.1109C96.401 91.4601 96.0482 91.7284 95.3084 91.9626C93.8884 92.4056 93.2082 92.8442 93.2082 93.3127C93.2082 93.5086 93.2805 93.7855 93.4208 94.1432L100.321 111.635C100.431 111.924 100.563 112.052 100.746 112.052C100.899 112.052 101.048 111.899 101.15 111.635L107.557 95.0759C107.676 94.7096 107.727 94.4328 107.727 94.1815C107.727 93.2361 106.881 92.4865 105.176 91.9243C104.564 91.7241 104.258 91.426 104.258 91.0342C104.258 90.7488 104.356 90.4933 104.496 90.4294C104.568 90.3953 104.708 90.3826 104.908 90.3826C105.104 90.3826 105.363 90.3996 105.669 90.4337C107.11 90.5998 108.518 90.6807 109.887 90.6807C111.009 90.6807 112.102 90.6253 113.169 90.5103C113.233 90.5061 113.296 90.5018 113.356 90.5018C113.841 90.5018 114.087 90.719 114.087 91.1534Z" fill="#FEF6F3"/>
<path fill-rule="evenodd" clip-rule="evenodd" d="M125.312 93.5822C125.312 94.2295 125.074 94.8088 124.581 95.3667C124.096 95.899 123.539 96.1759 122.957 96.1759C122.277 96.1759 121.724 95.9842 121.303 95.5967C120.878 95.2048 120.665 94.698 120.665 94.0805C120.665 93.4629 120.933 92.888 121.456 92.3812C121.97 91.8573 122.527 91.5933 123.127 91.5933C124.581 91.5933 125.312 92.2534 125.312 93.5822ZM127.689 117.074C127.612 117.526 127.395 117.764 127.055 117.764C126.898 117.764 126.596 117.752 126.145 117.718C125.295 117.658 124.436 117.628 123.569 117.628C122.353 117.628 121.12 117.688 119.87 117.798C119.662 117.824 119.483 117.837 119.334 117.837C118.761 117.837 118.608 117.675 118.608 117.074C118.608 116.759 118.994 116.491 119.743 116.287C120.572 116.057 120.984 115.294 120.984 113.999C120.984 110.852 120.984 111.64 120.984 108.497C120.984 107.424 120.869 106.67 120.64 106.24C120.312 105.622 119.653 105.154 118.693 104.847C118.25 104.707 118.029 104.481 118.029 104.174C118.029 103.765 118.357 103.459 118.994 103.271C120.198 102.922 121.256 102.441 122.179 101.836C122.944 101.333 123.386 101.095 123.56 101.095C124.113 101.095 124.389 101.427 124.389 102.096C124.389 102.121 124.389 102.147 124.389 102.172C124.334 105.605 124.304 109.089 124.304 112.628C124.304 112.837 124.304 113.045 124.304 113.254C124.304 113.267 124.304 113.28 124.304 113.288C124.304 114.166 124.441 114.796 124.708 115.188C125.002 115.609 125.559 115.907 126.422 116.099C127.268 116.287 127.697 116.58 127.697 116.968C127.697 117.002 127.693 117.036 127.689 117.074Z" fill="#FEF6F3"/>
<path fill-rule="evenodd" clip-rule="evenodd" d="M140.495 116.988C140.495 117.486 140.244 117.725 139.726 117.725C139.666 117.725 139.598 117.721 139.53 117.716C138.701 117.635 137.783 117.597 136.762 117.597C135.427 117.597 133.918 117.665 132.209 117.797C131.984 117.823 131.788 117.836 131.622 117.836C131.38 117.836 131.214 117.81 131.138 117.759C130.993 117.678 130.921 117.457 130.921 117.099C130.921 116.741 131.282 116.477 132.098 116.238C132.447 116.136 132.719 115.94 132.91 115.651C133.14 115.301 133.255 114.812 133.255 114.186V95.408C133.255 94.3007 133.089 93.466 132.766 92.9379C132.422 92.4183 131.818 92.0052 130.985 91.7156C130.551 91.575 130.321 91.3493 130.321 91.0724C130.321 90.6551 130.644 90.3442 131.286 90.1355C132.298 89.8118 133.302 89.3391 134.305 88.7258C135.159 88.2275 135.699 87.9805 135.933 87.9805C136.46 87.9805 136.724 88.3254 136.724 89.0239C136.677 90.2164 136.69 89.9183 136.643 91.1108C136.609 92.1031 136.592 93.0784 136.596 94.0452L136.677 113.692C136.681 114.535 136.894 115.14 137.323 115.536C137.749 115.911 138.484 116.158 139.53 116.285C140.163 116.345 140.495 116.588 140.495 116.988Z" fill="#FEF6F3"/>
<path fill-rule="evenodd" clip-rule="evenodd" d="M153 116.988C153 117.486 152.745 117.725 152.226 117.725C152.167 117.725 152.103 117.721 152.035 117.716C151.206 117.635 150.283 117.597 149.263 117.597C147.932 117.597 146.423 117.665 144.71 117.797C144.488 117.823 144.293 117.836 144.127 117.836C143.885 117.836 143.719 117.81 143.638 117.759C143.498 117.678 143.426 117.457 143.426 117.099C143.426 116.741 143.783 116.477 144.603 116.238C144.952 116.136 145.224 115.94 145.415 115.651C145.645 115.301 145.76 114.812 145.76 114.186V95.408C145.76 94.3007 145.594 93.466 145.267 92.9379C144.922 92.4183 144.323 92.0052 143.489 91.7156C143.056 91.575 142.826 91.3493 142.826 91.0724C142.826 90.6551 143.145 90.3442 143.791 90.1355C144.803 89.8118 145.806 89.3391 146.81 88.7258C147.66 88.2275 148.204 87.9805 148.438 87.9805C148.965 87.9805 149.229 88.3254 149.229 89.0239C149.178 90.2164 149.191 89.9183 149.148 91.1108C149.11 92.1031 149.093 93.0784 149.097 94.0452L149.182 113.692C149.182 114.535 149.395 115.14 149.828 115.536C150.253 115.911 150.989 116.158 152.035 116.285C152.664 116.345 153 116.588 153 116.988Z" fill="#FEF6F3"/>
</svg>
