<svg xmlns="http://www.w3.org/2000/svg" width="37" height="30" viewBox="0 0 37 30" fill="none">
  <path d="M20.867 0.439901C20.7269 0.579202 20.6158 0.744626 20.54 0.926711C20.4642 1.1088 20.4252 1.30397 20.4252 1.50108C20.4252 1.69819 20.4642 1.89337 20.54 2.07545C20.6158 2.25754 20.7269 2.42296 20.867 2.56226L31.8557 13.5003L2.3473 13.5003C1.94773 13.5003 1.56452 13.6583 1.28198 13.9396C0.99944 14.2209 0.84071 14.6024 0.84071 15.0002C0.84071 15.398 0.99944 15.7795 1.28198 16.0608C1.56452 16.342 1.94773 16.5001 2.3473 16.5001L31.8557 16.5001L20.867 27.4381C20.5843 27.7195 20.4255 28.1012 20.4255 28.4993C20.4255 28.8973 20.5843 29.279 20.867 29.5604C21.1497 29.8419 21.5331 30 21.9329 30C22.3327 30 22.7162 29.8419 22.9988 29.5604L36.5581 16.0614C36.6982 15.9221 36.8093 15.7566 36.8852 15.5745C36.961 15.3925 37 15.1973 37 15.0002C37 14.8031 36.961 14.6079 36.8852 14.4258C36.8093 14.2437 36.6982 14.0783 36.5581 13.939L22.9989 0.439901C22.8589 0.300445 22.6928 0.189815 22.5099 0.114333C22.327 0.0388521 22.1309 3.16896e-06 21.9329 3.16036e-06C21.7349 3.15176e-06 21.5389 0.038852 21.356 0.114333C21.1731 0.189815 21.0069 0.300445 20.867 0.439901Z" fill="#120703"/>
</svg>