<svg width="15" height="15" viewBox="0 0 15 15" fill="none" xmlns="http://www.w3.org/2000/svg">
<path fill-rule="evenodd" clip-rule="evenodd" d="M7.63535 0.314516C8.27454 3.61938 9.33252 5.43126 11.0738 6.1995L13.7187 7.04746C14.3358 7.24314 15.0044 7.56928 14.9897 7.67075C14.9823 7.72873 15.3203 7.63451 12.6607 8.32302C9.65579 9.09851 8.35536 10.693 7.68678 14.4109C7.59862 14.94 7.48842 15.0777 7.23127 14.9618C7.09168 14.8965 7.13576 15.027 6.95208 14.0558C6.64351 12.5628 5.65168 10.3596 5.05657 9.80876C3.90309 8.75063 3.4843 8.57669 0.222238 7.82295C0.0606039 7.77946 -0.0128571 7.71423 0.00183692 7.62726C0.0532659 7.30837 0.178158 7.25764 2.38225 6.6416C4.93901 5.93859 6.16596 4.50358 6.93004 1.33642C6.99617 1.06826 7.0329 0.807347 7.06964 0.314516C7.09168 0.133328 7.1725 0.0246153 7.30475 0.00287273C7.47373 -0.0188698 7.59127 0.0825957 7.63535 0.314516Z" fill="#FEF6F3"/>
</svg>
