<svg width="50" height="50" viewBox="0 0 50 50" fill="none" xmlns="http://www.w3.org/2000/svg">
<g clip-path="url(#clip0_447_117)">
<path d="M41.6668 36.4582C42.4694 36.4586 43.241 36.7677 43.8218 37.3215C44.4026 37.8753 44.7481 38.6314 44.7867 39.433C44.8252 40.2346 44.5539 41.0203 44.029 41.6273C43.504 42.2344 42.7656 42.6161 41.9668 42.6936L41.6668 42.7082H8.3335C7.53096 42.7078 6.75934 42.3986 6.17852 41.8448C5.59771 41.291 5.25222 40.535 5.21365 39.7333C5.17509 38.9317 5.4464 38.146 5.97136 37.539C6.49633 36.932 7.23471 36.5502 8.0335 36.4728L8.3335 36.4582H41.6668ZM41.6668 21.8748C42.4956 21.8748 43.2905 22.2041 43.8765 22.7901C44.4626 23.3762 44.7918 24.171 44.7918 24.9998C44.7918 25.8286 44.4626 26.6235 43.8765 27.2095C43.2905 27.7956 42.4956 28.1248 41.6668 28.1248H8.3335C7.50469 28.1248 6.70984 27.7956 6.12379 27.2095C5.53774 26.6235 5.2085 25.8286 5.2085 24.9998C5.2085 24.171 5.53774 23.3762 6.12379 22.7901C6.70984 22.2041 7.50469 21.8748 8.3335 21.8748H41.6668ZM41.6668 7.2915C42.4956 7.2915 43.2905 7.62074 43.8765 8.2068C44.4626 8.79285 44.7918 9.5877 44.7918 10.4165C44.7918 11.2453 44.4626 12.0402 43.8765 12.6262C43.2905 13.2123 42.4956 13.5415 41.6668 13.5415H8.3335C7.50469 13.5415 6.70984 13.2123 6.12379 12.6262C5.53774 12.0402 5.2085 11.2453 5.2085 10.4165C5.2085 9.5877 5.53774 8.79285 6.12379 8.2068C6.70984 7.62074 7.50469 7.2915 8.3335 7.2915H41.6668Z" fill="#FEF6F3"/>
</g>
<defs>
<clipPath id="clip0_447_117">
<rect width="50" height="50" fill="white"/>
</clipPath>
</defs>
</svg>
